<svg width="42" height="34" viewBox="0 0 42 34" fill="none" xmlns="http://www.w3.org/2000/svg">
<g opacity="0.4">
<path d="M13.1983 3.51889C11.9977 4.63912 10.5562 5.51414 9.60552 6.85057C9.26408 7.33055 9.0676 7.88779 8.71504 8.34714C8.35635 8.81449 7.92897 9.36055 7.63059 9.86174C7.04111 10.8519 6.00701 11.5053 5.22509 12.3075C4.76513 12.7793 4.01587 13.507 3.40223 13.7849C3.08974 13.9264 2.16411 14.7263 2.46887 14.8738C3.1785 15.2174 3.73055 15.7483 4.31498 16.2799C5.11866 17.0109 5.94634 17.6087 6.6193 18.4693C7.47014 19.5574 8.56618 20.4348 9.38864 21.5496C10.0335 22.4236 10.5507 23.3883 11.2075 24.2594C11.7747 25.0116 12.517 25.6338 13.0989 26.3772C13.1417 26.432 13.5563 26.9594 13.4767 27.0377C13.3945 27.1185 12.846 25.9991 12.806 25.8881" stroke="white" stroke-linecap="round" stroke-linejoin="round"/>
<path d="M29.4469 5.79362C27.2372 8.99451 24.9025 12.1047 22.7034 15.3145C21.3393 17.3055 20.1149 19.3504 18.8742 21.4243C17.899 23.0544 16.7873 24.6118 15.7677 26.2108C15.4136 26.7662 15.1282 27.3491 14.8632 27.9496C14.4296 28.9324 14.702 27.7394 14.8168 27.2961" stroke="white" stroke-linecap="round" stroke-linejoin="round"/>
<path d="M32.8845 5.72106C33.8645 7.45443 34.7878 9.18533 35.8646 10.8571C36.7446 12.2233 36.8966 13.9638 37.2252 15.5159C37.5662 17.1266 37.9608 18.4838 38.6523 19.9618C38.7341 20.1367 38.9911 20.581 38.9501 20.7775C38.9304 20.872 38.4786 20.7749 38.4031 20.7693C38.1464 20.7505 37.8044 20.9 37.5678 20.9863C33.2765 22.5507 29.9965 25.4223 26.9744 28.7302C26.458 29.2954 25.9804 30.1697 25.3249 30.551C24.9017 30.7972 24.523 31.1582 24.0568 31.2811C23.6183 31.3967 24.0465 30.7529 24.1811 30.3707" stroke="white" stroke-linecap="round" stroke-linejoin="round"/>
</g>
</svg>
