<svg width="30" height="32" viewBox="0 0 30 32" fill="none" xmlns="http://www.w3.org/2000/svg">
<g opacity="0.3">
<path d="M3.10181 11.2079C4.45407 17.2995 5.97687 23.405 6.87137 29.5886C7.37106 33.043 6.27386 28.0583 6.13747 27.3536C5.8422 25.8281 5.50365 24.4767 5.50365 22.9168C5.50365 19.7773 5.41956 16.6027 5.18674 13.4596C5.02377 11.2595 2.32119 4.70818 5.73716 10.1737C9.22028 15.7467 11.6794 21.9082 14.0435 27.9874C14.3693 28.8251 14.8206 29.6191 15.1777 30.4226C15.3728 30.8615 11.7168 27.2884 10.3073 26.5196" stroke="white" stroke-width="2" stroke-linecap="round" stroke-linejoin="round"/>
<path d="M1 24.7182C4.90319 23.1606 13.5097 20.2228 16.0115 15.8447C17.0596 14.0106 16.8555 14.8587 13.9099 15.411" stroke="white" stroke-width="2" stroke-linecap="round" stroke-linejoin="round"/>
<path d="M12.709 4.30249C15.7212 10.2655 17.9029 16.6148 18.7303 23.2337C18.8069 23.8469 18.9493 24.5202 19.3808 24.9517C19.4609 25.0318 17.936 22.1776 17.5127 21.4156" stroke="white" stroke-width="2" stroke-linecap="round" stroke-linejoin="round"/>
<path d="M12.709 4.00232C15.0447 5.40156 23.6239 10.5692 18.0297 13.8599C17.5388 14.1487 16.9631 14.4153 16.612 14.8773C15.8686 15.8555 15.779 16.1426 16.3117 14.8106" stroke="white" stroke-width="2" stroke-linecap="round" stroke-linejoin="round"/>
<path d="M20.5151 1C21.51 7.74083 23.2172 15.1475 23.2172 22.0161C23.2172 23.5324 22.9637 20.7242 22.6167 19.9145" stroke="white" stroke-width="2" stroke-linecap="round" stroke-linejoin="round"/>
<path d="M27.4203 13.0093C29.0686 17.923 29.9162 20.8183 25.0852 22.2497C23.4344 22.7388 25.4291 20.3411 25.8525 20.048C27.2977 19.0474 28.7366 15.8267 27.1201 14.2102C26.477 13.567 24.9375 14.3794 24.4847 13.6097C23.8174 12.4752 25.3131 10.3273 26.2194 9.77343C28.8261 8.18045 28.4982 10.4253 27.4203 9.70672" stroke="white" stroke-width="2" stroke-linecap="round" stroke-linejoin="round"/>
</g>
</svg>
