<svg width="176" height="113" viewBox="0 0 176 113" fill="none" xmlns="http://www.w3.org/2000/svg">
<g opacity="0.3">
<path d="M2 45.0533C9.35475 65.5293 30.8036 127.133 24.6844 106.255C23.2847 101.479 21.1904 96.8012 19.9012 91.91C14.3195 70.7325 43.3767 59.5247 39.9461 80.3038C37.9521 92.3811 32.7816 96.8555 21.9188 93.4607C17.789 92.1701 23.3083 96.4237 21.8205 91.3475" stroke="white" stroke-width="3" stroke-linecap="round" stroke-linejoin="round"/>
<path d="M53.4514 61.4961C35.1373 75.1973 59.8328 82.352 63.6087 73.8318C65.4449 69.6884 62.2339 65.3063 59.04 62.9844C58.0073 62.2336 57.2084 62.0243 56.0325 62.3028C54.2829 62.7171 54.9099 62.4879 55.594 63.4733" stroke="white" stroke-width="3" stroke-linecap="round" stroke-linejoin="round"/>
<path d="M70.9937 55.5733C70.2881 59.9072 69.1009 63.6945 70.9852 67.7911C71.853 69.6777 73.8984 71.0281 75.949 70.2585C80.0997 68.7007 84.0492 62.1369 80.7299 58.1761C78.835 55.9151 76.5295 54.6321 73.6001 54.491C72.7036 54.4478 72.1234 55.4914 72.2831 56.3677C72.5281 57.7127 72.8016 57.4036 71.5975 58.5225" stroke="white" stroke-width="3" stroke-linecap="round" stroke-linejoin="round"/>
<path d="M81.8604 37.5391C84.1673 44.1645 86.5057 50.7401 88.7107 57.3568C89.4089 59.452 91.608 63.7257 93.1199 65.2405C98.7094 70.8406 101.079 58.4989 98.3474 58.2375" stroke="white" stroke-width="3" stroke-linecap="round" stroke-linejoin="round"/>
<path d="M73.7363 49.8196C79.7182 47.9624 85.7784 46.2306 91.6594 44.0601C91.9807 43.9415 93.1659 43.5765 93.5014 43.086C93.6956 42.8023 93.7451 42.4167 93.9452 42.131C94.5501 41.2672 94.0691 41.8013 93.1565 42.3043" stroke="white" stroke-width="3" stroke-linecap="round" stroke-linejoin="round"/>
<path d="M109.71 37.4526C108.323 41.01 103.981 49.2204 109.473 51.7057C110.433 52.1401 111.293 51.7014 112.024 51.0741C113.867 49.4916 114.978 47.0903 116.893 45.5655C120.295 42.8568 120.663 46.5841 120.142 49.2446C119.585 52.0926 118.129 57.8534 115.25 59.2177C111 61.2314 112.21 57.3568 113.433 54.5978" stroke="white" stroke-width="3" stroke-linecap="round" stroke-linejoin="round"/>
<path d="M116.734 24.9734C119.568 31.2963 122.008 37.6365 123.955 44.2773C124.259 45.3166 124.664 47.5088 126.172 47.4483C128.784 47.3434 127.334 42.4067 126.495 41.3907" stroke="white" stroke-width="3" stroke-linecap="round" stroke-linejoin="round"/>
<path d="M114.14 37.4568C115.099 36.8691 124.947 31.463 123.162 30.905" stroke="white" stroke-width="3" stroke-linecap="round" stroke-linejoin="round"/>
<path d="M130.578 35.7653C131.606 39.5852 132.565 43.4342 133.678 47.2312C134.177 48.9339 132.72 43.811 132.368 42.0718C131.787 39.1959 130.693 34.7821 132.697 32.2786C134.014 30.6326 138.516 30.0604 135.463 31.9889" stroke="white" stroke-width="3" stroke-linecap="round" stroke-linejoin="round"/>
<path d="M146.95 29.404C146.402 30.2317 137.892 43.5406 143.774 44.3448C145.672 44.6044 146.795 41.7414 147.468 40.4545C149.264 37.0194 146.95 34.3474 146.429 31.1341C146.249 30.0224 146.268 30.2014 146.845 31.3164C148.02 33.5895 148.53 35.9728 149.079 38.4479C149.187 38.9305 149.482 42.6939 150.467 42.6872C151.346 42.6812 151.376 38.8961 151.371 38.2682" stroke="white" stroke-width="3" stroke-linecap="round" stroke-linejoin="round"/>
<path d="M155.276 26.7031C158.069 34.8261 161.593 43.0673 163.199 51.5617C163.52 53.2634 163.801 54.9024 164.29 56.568C165.717 61.4392 163.079 55.141 162.432 53.7838" stroke="white" stroke-width="3" stroke-linecap="round" stroke-linejoin="round"/>
<path d="M156.021 30.1322C160.447 28.329 164.565 26.7218 165.065 32.5471C165.213 34.2746 165.187 36.0468 163.845 37.2753C161.485 39.4367 160.18 39.5317 161.489 36.3451" stroke="white" stroke-width="3" stroke-linecap="round" stroke-linejoin="round"/>
</g>
</svg>
