<svg width="21" height="23" viewBox="0 0 21 23" fill="none" xmlns="http://www.w3.org/2000/svg">
<g opacity="0.4">
<path d="M8.85095 4.00292C5.87207 4.57476 3.7064 5.43479 1.81836 7.86227C0.621845 9.40065 0.884194 11.8221 1.66827 13.453C2.9602 16.1402 6.13575 17.6576 9.00103 17.7894C12.3388 17.9428 16.9789 16.962 17.6631 12.9813C18.0299 10.8473 15.9912 8.8297 15.0366 7.07968C14.2601 5.65601 13.0906 3.73681 11.456 3.13457C10.7888 2.88874 9.23994 2.97409 8.75446 3.63843C8.53758 3.93522 8.25842 4.24847 8.10052 4.58183C7.97258 4.85193 8.10991 3.89451 8.07908 3.61699" stroke="white" stroke-linecap="round" stroke-linejoin="round"/>
<path d="M10.1053 11.3357C9.30146 11.7488 7.99702 12.0226 8.70093 12.9277C8.86132 13.1339 9.09023 13.1226 9.28519 12.9277C9.45185 12.761 10.2922 11.8858 9.67112 11.6787C8.40511 11.2567 8.868 13.7829 9.77297 12.665C10.259 12.0646 9.57869 11.4737 8.96894 11.8396C8.24245 12.2754 8.81719 13.0366 9.38703 12.3756C9.81649 11.8774 9.47356 11.4957 9.00646 11.9628C8.58806 12.3812 9.01306 13.0486 9.42455 12.4828C9.8466 11.9025 9.36536 11.411 8.85637 11.92C8.2672 12.5091 8.90494 12.4473 9.32271 12.0593C9.7439 11.6682 8.99694 11.7259 8.75453 12.0325C8.19146 12.7446 9.07345 12.6434 9.21551 12.0325C9.42419 11.1352 8.49844 13.1968 8.9475 11.6251" stroke="white" stroke-linecap="round" stroke-linejoin="round"/>
<path d="M6.82495 8.34473C7.68196 9.47562 8.56033 10.548 9.27992 11.6788C9.47935 11.9922 9.32017 12.3067 9.43001 12.3006C9.83601 12.278 10.2518 12.2041 10.6843 12.2041C11.674 12.2041 12.4534 11.7217 13.4073 11.7217C14.5624 11.7217 16.2594 11.4217 14.3507 10.4674" stroke="white" stroke-linecap="round" stroke-linejoin="round"/>
<path d="M5.85996 3.90642C5.67977 2.99419 4.79903 0.783005 6.43886 1.01727C7.02727 1.10133 7.42204 1.71006 7.7682 2.09467C8.66876 3.0953 8.57244 4.30306 7.11425 4.38883C6.73227 4.4113 6.19446 5.16877 5.76348 4.63004C5.27549 4.02006 5.77366 4.06105 5.85996 3.32751C5.91642 2.84759 5.60328 2.88741 5.46867 2.41628C5.36541 2.05487 5.5799 1.65913 5.667 1.39784" stroke="white" stroke-linecap="round" stroke-linejoin="round"/>
<path d="M6.43896 2.84509C6.43037 3.07555 6.07501 5.15215 6.83025 4.81229C7.08315 4.69848 7.3015 4.53305 7.4038 4.27091C7.50292 4.0169 7.39756 3.86516 7.28587 3.61696C6.99811 2.97749 6.16333 1.98358 6.41752 3.42399C6.5779 4.33284 7.5929 4.12045 7.67181 3.25247C7.73206 2.58963 6.89625 1.7016 6.36392 2.45916C5.98739 2.99499 6.65797 4.17661 7.05002 3.34895C7.24908 2.92871 6.77309 1.8604 6.26743 2.38412C5.74898 2.92108 6.52815 4.0538 7.0393 3.59552C7.54472 3.14238 7.2012 1.76009 6.65337 2.28763C6.15226 2.77018 6.90412 3.7304 7.28587 2.99518C7.71169 2.17508 6.77363 1.55713 6.48184 2.41628C6.22135 3.18328 7.03364 4.00827 7.22155 2.96302C7.36458 2.16741 5.90294 1.74439 5.90294 2.69501C5.90294 3.57074 6.68553 3.48114 6.68553 2.68429C6.68553 1.85373 5.84915 2.04069 6.19775 2.73789C6.54637 3.43512 7.01368 2.19769 6.62121 1.80521C6.16306 1.34707 5.55654 2.05538 6.09591 2.49668C6.46356 2.79749 6.96621 1.54932 6.34784 1.31743C5.81379 1.11717 6.10917 2.20741 6.29423 1.96066C6.5811 1.57818 6.14138 1.3221 6.44432 1.39784C6.7113 1.46458 7.35998 1.60721 7.54316 1.84273C7.68735 2.02812 8.27215 3.0597 8.27215 3.32751C8.27215 4.14708 7.01866 4.58892 6.29959 4.38347C5.78352 4.23602 5.63082 4.60062 5.81182 4.47995C6.25085 4.18727 6.34248 3.42387 6.34248 3.71345" stroke="white" stroke-linecap="round" stroke-linejoin="round"/>
<path d="M6.34243 17.7036C5.84565 18.7576 5.40474 19.8165 4.82013 20.8125C4.68847 21.0368 4.4418 21.4946 4.41276 21.7559C4.33455 22.4598 5.04158 20.0772 5.18463 19.7298" stroke="white" stroke-linecap="round" stroke-linejoin="round"/>
<path d="M16.0874 15.6775C17.3093 17.2204 18.6567 18.3207 19.6091 20.0139C19.7028 20.1806 19.8654 20.3131 19.995 20.4427C20.4284 20.8762 19.1904 19.5177 18.7889 19.0544" stroke="white" stroke-linecap="round" stroke-linejoin="round"/>
</g>
</svg>
