<svg width="59" height="47" viewBox="0 0 59 47" fill="none" xmlns="http://www.w3.org/2000/svg">
<g opacity="0.4">
<path d="M3.52166 20.0603C3.52907 21.4402 4.02366 22.4291 4.30488 23.7367C4.49635 24.6269 5.02491 25.3881 5.23362 26.2655C5.45901 27.2131 5.84978 28.35 6.24731 29.2306C6.5881 29.9855 6.77461 30.675 7.25221 31.375C8.09649 32.6125 8.64969 34.0016 9.50157 35.225C10.7399 37.0035 12.9463 39.4353 15.184 39.7306C15.9028 39.8254 16.6488 40.1946 17.3665 40.2211C17.9821 40.2438 18.7147 40.3509 19.2949 40.5675C20.2484 40.9236 21.3501 40.9547 22.2543 41.3366C22.7424 41.5427 23.3266 41.4866 23.8239 41.6793C24.4685 41.9292 25.2453 42.108 25.9261 42.2366C28.1542 42.6574 30.3791 43.0637 32.6547 43.2012C33.8876 43.2758 35.0053 43.9003 36.2373 43.9135C37.3936 43.9259 38.8451 44.4128 39.9842 44.1512C41.3843 43.8297 42.8389 43.1829 44.0266 42.3726C44.6223 41.9662 45.1155 41.4395 45.5717 40.8842C46.1709 40.1547 46.5846 39.3241 47.1857 38.597C49.282 36.0615 50.7672 33.0791 52.5889 30.3675C53.0182 29.7284 53.6145 29.2576 54.0928 28.6826C54.2137 28.5372 54.2939 28.3373 54.4706 28.2092C55.1321 27.7297 54.0878 27.4682 53.6441 27.1559" stroke="white" stroke-linecap="round" stroke-linejoin="round"/>
<path d="M3.24969 20.136C4.62884 18.8979 5.76768 18.0123 7.52917 17.4978C9.00426 17.0668 10.5534 16.5167 11.938 15.8524C14.0659 14.8315 16.7526 14.7049 19.1053 14.7209C21.666 14.7384 24.2022 14.6724 26.7222 15.1484C27.5018 15.2956 28.229 15.6761 29.0063 15.8362C29.9369 16.0278 30.8671 16.2339 31.7813 16.4885C33.1843 16.8792 34.6534 17.1269 36.0758 17.4278C38.0602 17.8474 39.7728 19.2392 41.7351 19.7748C42.9023 20.0935 44.2509 20.5318 45.3424 21.0721C45.7512 21.2745 46.2281 21.4498 46.5941 21.7216C47.0494 22.0597 47.323 22.538 47.7294 22.9116C49.0414 24.1174 50.6211 24.8663 52.0943 25.8722C52.5459 26.1805 53.3227 26.7095 53.8679 26.8125C54.6183 26.9542 54.3178 28.3322 54.5795 26.9469" stroke="white" stroke-linecap="round" stroke-linejoin="round"/>
<path d="M54.2946 27.7913C53.1445 28.848 52.4019 29.1928 50.9642 29.6652C49.8355 30.0361 48.6278 30.2211 47.4424 30.2142C46.3364 30.2077 45.1392 30.1415 44.0391 30.0235C43.1233 29.9253 42.2231 29.6466 41.2821 29.5776C39.1539 29.4214 36.9503 29.5614 34.83 29.7689C31.803 30.0651 29.0164 29.6296 26.0234 29.2306C22.756 28.7951 19.5597 27.9355 16.5146 26.6799C15.4877 26.2564 14.3204 26.242 13.2404 25.9938C12.051 25.7205 10.9394 25.1686 9.88554 24.5662C9.44197 24.3126 9.05227 23.9779 8.57603 23.7705C8.01845 23.5277 7.41631 23.4682 6.86431 23.2194C6.09515 22.8726 5.22084 22.3429 4.62941 21.7434C4.37207 21.4825 3.95955 21.2291 3.78573 20.8755C3.73502 20.7723 3.68606 20.5549 3.70635 20.4475C3.75473 20.1913 3.53266 20.2164 3.82427 20.5018" stroke="white" stroke-linecap="round" stroke-linejoin="round"/>
<path d="M25.3125 35.3288C26.0815 35.3874 27.0741 35.5898 26.9456 34.562C26.9044 34.2321 26.6588 34.1514 26.4086 34.012C25.6628 33.5963 24.141 33.841 23.6849 34.6155C22.8663 36.0054 23.5782 37.808 25.273 37.5929C25.734 37.5344 26.563 37.373 26.9138 37.0305C27.3349 36.6194 26.8106 36.6653 26.5687 36.1429" stroke="white" stroke-linecap="round" stroke-linejoin="round"/>
<path d="M23.3241 33.2867C24.6155 33.0318 25.2673 32.9487 26.4814 33.178C26.9707 33.2705 27.222 33.2822 27.6 33.6457C28.2246 34.2462 28.3026 35.1781 28.081 35.944C27.8939 36.5907 27.5054 37.4522 27.1558 38.0337C26.8957 38.4662 26.4543 38.466 26.0015 38.4708C25.5877 38.4752 24.7607 38.0881 24.4143 38.2031C24.0466 38.3251 23.0163 38.195 22.8236 37.8029C22.6463 37.4422 22.4179 37.258 22.3179 36.8422C22.2224 36.4453 22.2141 36.0816 22.1505 35.6926C22.0631 35.1584 21.9942 33.7316 22.728 33.5586C23.1581 33.4572 23.3479 33.3837 23.8023 33.4696C23.9313 33.4939 24.0236 33.6111 24.1554 33.636C24.3455 33.6719 23.812 33.4429 23.6218 33.407" stroke="white" stroke-linecap="round" stroke-linejoin="round"/>
<path d="M26.4238 28.744C27.5098 27.7802 28.5261 26.7668 29.6355 25.84C30.2314 25.3421 30.9292 24.9488 31.558 24.4834C33.3585 23.1508 35.2163 21.671 36.7131 19.9989C38.1876 18.3518 40.103 16.6166 42.0318 15.5346C43.0506 14.9631 43.9905 14.2963 44.9162 13.5907C45.8143 12.906 46.3742 11.8171 47.2421 11.0784C47.9142 10.5064 52.3469 6.58683 52.44 9.49662C52.4766 10.6399 51.2612 11.2054 50.462 11.7506C49.555 12.3694 48.6054 13.1938 47.7915 13.9379C47.0068 14.6553 46.1063 15.2461 45.3383 15.974C44.2935 16.9644 42.6316 17.5001 41.7822 18.6848C41.0814 19.6621 40.092 20.3671 39.2838 21.2428C38.1638 22.4565 36.939 23.4156 35.688 24.4837C34.6968 25.3301 33.2837 25.913 32.4997 26.9435C31.8449 27.8043 30.9267 28.0459 30.0415 28.5158C29.6562 28.7204 29.2213 28.7922 28.8546 29.107C28.7327 29.2117 28.5291 29.3209 28.4628 29.1647C28.425 29.0756 28.1902 29.215 28.2111 29.3094C28.2849 29.6422 28.162 28.5333 28.1495 28.429" stroke="white" stroke-linecap="round" stroke-linejoin="round"/>
<path d="M25.8732 28.9612C26.0876 29.1262 27.3687 30.544 27.5415 29.6288C27.5939 29.3517 28.037 28.9572 28.2157 28.6986C28.3508 28.5032 27.4576 28.5463 27.2995 28.6858C27.0929 28.8681 26.7379 28.9808 27.2579 29.0945C27.6575 29.1819 28.004 29.0684 28.3543 28.8886C28.4549 28.8369 29.6002 29.2468 28.554 29.0189C27.9976 28.8977 27.4511 28.8106 26.9141 28.7092C26.4499 28.6215 27.4139 28.6754 27.5494 28.701C27.6576 28.7214 26.6648 29.0838 26.5434 28.8813C26.5139 28.832 26.4707 28.7035 26.6357 28.6566" stroke="white" stroke-linecap="round" stroke-linejoin="round"/>
<path d="M7.05946 20.664C7.12209 20.7141 9.11496 22.2897 9.15035 22.1484C9.19321 21.9773 9.09841 21.8032 9.21635 21.6482C9.73184 20.9706 10.1482 21.4208 10.7375 21.8323C11.1972 22.1532 10.9076 19.5059 12.2228 20.8488C12.9024 21.5428 13.1276 21.4952 13.172 20.5546C13.2057 19.8423 13.4457 19.8856 14.0287 20.0719C14.425 20.1986 14.6991 20.3421 15.0037 19.9997C15.3732 19.5844 15.7402 19.3776 16.2766 19.6883C16.7213 19.9459 17.0554 20.497 17.4967 19.9579C17.6909 19.7207 17.7187 18.9063 18.1454 19.144C18.4128 19.2931 18.7184 19.7367 19.0658 19.681C19.329 19.6389 19.6627 18.9103 19.9192 19.0838C20.1866 19.2648 20.3792 19.8738 20.7716 19.811C20.9611 19.7806 21.3997 19.2628 21.0382 19.2667" stroke="white" stroke-linecap="round" stroke-linejoin="round"/>
<path d="M15.9921 21.1976C16.6412 21.9666 18.8842 25.8427 20.1977 23.5123C20.4329 23.095 20.6238 22.2163 20.9089 23.0271C21.1439 23.6953 21.5899 24.2126 22.2677 23.7502C22.7169 23.4437 23.0062 22.8342 23.5839 22.7384C24.114 22.6504 24.302 23.6514 24.8169 23.1849C25.2322 22.8087 25.214 22.0233 24.776 21.6675C24.6323 21.5508 24.5313 21.8404 24.4477 21.8975" stroke="white" stroke-linecap="round" stroke-linejoin="round"/>
<path d="M23.3418 18.6127C24.5756 18.6331 26.16 18.4995 26.867 19.7414C27.1948 20.317 27.0352 20.9428 26.6507 21.4522C26.3696 21.8246 25.7837 21.9261 25.5104 21.4576C25.2862 21.0733 25.9799 20.6405 26.2293 20.479C27.084 19.9252 27.9489 21.2338 28.034 22.0268C28.1051 22.6894 26.1176 23.8178 26.442 23.2358" stroke="white" stroke-linecap="round" stroke-linejoin="round"/>
<path d="M43.0568 24.5149C43.435 24.46 45.8573 24.1559 45.1894 25.288C44.8468 25.8688 43.9231 26.0407 43.3198 26.1383C43.0345 26.1845 42.3479 26.0375 42.8695 25.7328C43.3211 25.469 43.8975 25.4141 44.3991 25.5518C46.3543 26.0882 43.1466 27.8448 42.5169 28.0517C41.2936 28.4537 39.665 28.8121 38.6461 27.8476" stroke="white" stroke-linecap="round" stroke-linejoin="round"/>
<path d="M31.5515 18.5615C31.8778 19.4168 32.2993 20.2937 32.5497 21.1747C32.6359 21.4779 32.1705 20.6554 32.0819 20.3529C32.0584 20.2728 31.9539 19.4116 31.9284 19.4124C31.6143 19.4225 31.2828 20.789 31.1532 21.0284C30.5401 22.1603 29.6747 21.5189 28.7574 21.2524C27.647 20.9298 26.9304 21.9499 26.1707 22.5441C25.5629 23.0194 25.3333 23.1572 25.5444 23.8998C25.7152 24.5006 25.7288 25.0545 25.2463 25.4777C24.8699 25.808 24.4439 25.9811 24.0179 26.232C23.6276 26.4618 24.1171 26.5042 24.0875 26.3163C24.0066 25.8033 22.9284 25.7033 22.577 25.6607C21.2732 25.5027 20.0223 24.9318 18.7428 24.7728C18.0631 24.6883 17.36 24.9435 16.6756 24.9164C15.9804 24.8888 16.7634 25.6446 16.9849 25.8614C17.3659 26.2343 16.2482 25.082 15.8169 24.7685C15.0937 24.2426 14.4151 23.8129 14.1611 22.9034C13.9066 21.9916 13.6512 21.3546 13.0702 20.6109C12.87 20.3545 12.9022 20.0281 13.0735 19.7641C13.4704 19.1525 14.1749 18.7268 14.8397 18.4813" stroke="white" stroke-linecap="round" stroke-linejoin="round"/>
<path d="M30.9605 21.0122C29.6138 19.6367 28.4219 18.9287 26.6446 18.3385C26.0198 18.131 25.4199 17.558 25.0945 16.9883C24.8058 16.4827 24.9943 16.6376 24.445 17.1469C23.6948 17.8425 23.3881 17.033 22.5843 17.1016C21.3525 17.2069 20.1426 18.105 18.917 18.0824C18.5814 18.0762 18.7625 17.5469 18.3119 17.7046C17.553 17.9702 16.959 18.2449 16.1354 18.2193C15.6373 18.2038 14.6603 18.3492 14.6227 18.9518" stroke="white" stroke-linecap="round" stroke-linejoin="round"/>
<path d="M41.4829 22.9994C42.9524 23.4264 44.4725 23.6942 45.9325 24.1353C46.4467 24.2907 46.6747 24.5533 46.9789 24.9667C47.2533 25.3396 47.6352 26.1674 48.1055 26.2975C48.7835 26.485 49.1935 26.2661 49.8746 26.1866C50.2847 26.1387 51.4973 26.493 51.0916 26.4164" stroke="white" stroke-linecap="round" stroke-linejoin="round"/>
<path d="M40.0554 24.4606C38.2463 25.2169 37.083 26.6626 35.1784 27.3028C34.8014 27.4296 33.6875 27.6025 33.6474 28.2455C33.6184 28.7109 37.3733 27.946 37.9543 27.7808" stroke="white" stroke-linecap="round" stroke-linejoin="round"/>
<path d="M45.7749 27.0812C46.5268 27.8977 47.1053 28.9709 48.2613 28.8468C48.5741 28.8132 49.1999 28.8952 49.4362 28.734" stroke="white" stroke-linecap="round" stroke-linejoin="round"/>
</g>
</svg>
