<svg width="43" height="28" viewBox="0 0 43 28" fill="none" xmlns="http://www.w3.org/2000/svg">
<g opacity="0.3">
<path d="M3.50439 4.3446C3.09686 8.42877 2.84857 12.5548 2.34494 16.6292C2.29648 17.0213 1.91053 18.5688 2.3668 17.3176C2.70042 16.4028 2.5927 15.4495 3.12864 14.582C3.86684 13.3871 7.20204 8.83563 8.76847 9.29603C11.9079 10.2188 8.73913 16.042 7.84029 17.7106C7.53028 18.2862 6.68566 19.5345 7.12299 20.1799C7.70602 21.0402 8.78462 17.8606 8.83039 17.7634" stroke="white" stroke-width="2" stroke-linecap="round" stroke-linejoin="round"/>
<path d="M15.9036 7.02641C15.5316 8.85113 12.4062 17.8577 15.4176 19.3495C16.2674 19.7705 18.1473 18.9758 18.7315 18.2908C19.3398 17.5774 19.0217 16.485 18.9559 15.657" stroke="white" stroke-width="2" stroke-linecap="round" stroke-linejoin="round"/>
<path d="M9.70776 7.22314C13.0117 8.20566 16.4095 8.85982 19.6922 9.87346C20.4671 10.1128 20.7576 10.2212 21.1748 10.9124C21.8236 11.9876 20.0999 11.0054 19.8023 10.6797" stroke="white" stroke-width="2" stroke-linecap="round" stroke-linejoin="round"/>
<path d="M24.649 13.6071C23.8906 15.8965 23.1777 18.2146 22.3123 20.4675C22.1402 20.9155 22.1143 21.0792 22.0215 20.7371C21.9322 20.4076 21.8453 20.2134 21.9917 19.8653C22.7694 18.0156 24.5847 15.3572 26.2966 14.324C28.1454 13.2083 27.1366 16.9559 26.8883 17.7145C26.6094 18.5665 25.8581 20.9017 26.7122 18.6421C27.2206 17.2974 28.3876 13.9553 30.3548 14.4417C31.5461 14.7363 31.271 16.3471 31.0604 17.1988C30.672 18.7694 30.2862 20.3295 29.8966 21.9054C29.3271 24.2082 29.6346 22.9646 30.0507 21.2818" stroke="white" stroke-width="2" stroke-linecap="round" stroke-linejoin="round"/>
<path d="M39.3351 8.59442C38.1484 12.8633 36.6922 17.12 35.6695 21.4332C35.5496 21.9391 35.2878 23.8121 36.0933 24.0352C36.8586 24.2472 39.8813 22.4309 39.1429 21.8012" stroke="white" stroke-width="2" stroke-linecap="round" stroke-linejoin="round"/>
</g>
</svg>
