<svg width="63" height="49" viewBox="0 0 63 49" fill="none" xmlns="http://www.w3.org/2000/svg">
<g opacity="0.4">
<path d="M11.456 11.6514C19.1398 13.6378 27.2043 13.0331 35.0867 12.6955C41.282 12.4301 47.6162 12.346 53.8066 12.8246C55.0281 12.9191 57.0281 12.7251 57.6684 14.0589C58.3028 15.3807 57.8339 17.1384 58.0156 18.5644C58.4633 22.0761 58.3673 25.8284 58.1903 29.3659C57.9954 33.26 54.1866 32.313 51.2076 32.4726C47.8237 32.6538 44.4789 32.9619 41.0945 32.7878C37.8776 32.6223 34.5766 33.3438 31.3617 33.5144C26.4622 33.7742 21.6015 34.3489 16.7078 34.6181C13.7946 34.7783 10.8761 34.4563 7.97775 34.7215C6.96222 34.8144 5.83847 35.1204 4.81626 35.0497C3.99531 34.993 4.48472 32.975 4.52827 32.5542C4.87387 29.2141 3.86341 25.8841 4.32109 22.4712C4.60885 20.3253 5.46208 18.0945 5.47307 15.9237C5.47831 14.8875 5.36377 12.4491 6.6676 12.0218C7.99884 11.5855 9.97523 12.4985 11.4008 12.5818C12.5121 12.6468 13.8711 12.716 14.947 13.0153C15.7289 13.2328 16.667 13.243 17.4678 13.3164C19.5752 13.5097 17.8317 12.7207 16.6424 12.3083" stroke="white" stroke-linecap="round" stroke-linejoin="round"/>
<path d="M8.78662 16.5399C10.3948 21.4113 10.8831 26.9194 11.0171 32.0602C11.0205 32.1905 11.2846 33.1654 11.0504 33.2481C10.5984 33.4077 9.62552 30.1613 9.53816 29.8445" stroke="white" stroke-linecap="round" stroke-linejoin="round"/>
<path d="M14.6082 16.3259C16.6678 19.3736 17.0452 22.2041 17.9091 25.618C18.2939 27.1388 18.7543 28.606 18.9355 30.1669C19.0205 30.8998 18.8842 31.6568 18.9125 32.394C18.9513 33.4044 17.8672 30.3826 17.7368 30.0299" stroke="white" stroke-linecap="round" stroke-linejoin="round"/>
<path d="M20.49 17.3074C20.9518 20.6087 21.4434 23.8947 22.0224 27.177C22.2424 28.424 22.6058 29.7038 22.6315 30.9768C22.677 33.2366 22.6042 30.2928 22.4981 29.3901" stroke="white" stroke-linecap="round" stroke-linejoin="round"/>
<path d="M24.5149 17.9031C25.2048 19.9374 25.9795 21.9979 26.204 24.1495C26.2961 25.0321 26.2341 25.9295 26.3891 26.8056C26.5801 27.8849 26.616 28.9872 26.8239 30.0549C27.12 31.5753 27.0758 31.9097 26.7661 30.0534" stroke="white" stroke-linecap="round" stroke-linejoin="round"/>
<path d="M30.0459 18.2631C30.5798 20.7785 30.9823 23.2159 31.0382 25.7853C31.0629 26.9233 30.8912 28.069 31.1986 29.1839C31.4803 30.2052 31.837 30.7311 31.683 29.3259" stroke="white" stroke-linecap="round" stroke-linejoin="round"/>
<path d="M35.489 18.4677C35.9949 20.6399 36.5564 22.7065 36.5394 24.9439C36.5317 25.9681 36.3429 26.9946 36.4329 28.0208C36.6156 30.1045 36.3154 28.8797 36.1408 27.423" stroke="white" stroke-linecap="round" stroke-linejoin="round"/>
<path d="M40.7568 18.3615C41.137 21.8048 40.9419 25.3012 41.3444 28.7249C41.6153 31.0302 41.4007 27.5201 41.3885 26.9183" stroke="white" stroke-linecap="round" stroke-linejoin="round"/>
<path d="M46.2402 19.3631C48.4076 20.0573 50.7414 20.6755 52.9597 19.7917C53.5714 19.5481 54.2039 19.4197 54.7219 19.0015C55.4333 18.4271 55.1597 18.6999 54.2771 18.7177" stroke="white" stroke-linecap="round" stroke-linejoin="round"/>
<path d="M46.9817 23.7598C49.2577 23.6449 51.7765 23.5468 53.9786 22.8251C55.077 22.4652 56.7378 22.2941 54.5798 22.3376" stroke="white" stroke-linecap="round" stroke-linejoin="round"/>
<path d="M48.9987 29.6901C51.2277 29.4002 53.2538 29.0913 55.4385 28.6659C56.1444 28.5284 57.667 28.8586 56.1107 28.1326" stroke="white" stroke-linecap="round" stroke-linejoin="round"/>
<path d="M48.6075 28.2718C50.7054 28.2489 53.1073 28.1881 55.1822 27.678C55.7357 27.5419 56.2633 27.3157 56.8066 27.1477C57.7166 26.8661 57.5681 27.0942 56.9148 26.6539" stroke="white" stroke-linecap="round" stroke-linejoin="round"/>
<path d="M10.3111 21.4164C18.465 24.0441 25.587 18.5961 33.7229 18.9585C34.7126 19.0025 35.6323 18.9003 36.6032 19.1704C37.2523 19.3509 37.9186 19.7354 38.5757 19.8209C38.9765 19.8731 42.5327 20.0341 40.4525 19.4554" stroke="white" stroke-linecap="round" stroke-linejoin="round"/>
<path d="M8.98219 17.2491C10.3605 16.9912 11.562 16.7888 12.9312 16.9144C13.1558 16.935 13.3888 17.102 13.6159 17.0684C14.0656 17.0019 14.7355 16.9149 15.1063 16.6536C16.5667 15.6247 18.0778 17.3079 19.5453 17.4083C20.9413 17.5037 22.3116 17.5643 23.7181 17.6814C25.2678 17.8105 26.2233 17.5855 27.7433 17.3606C29.1395 17.154 30.5225 16.9205 31.9247 16.7922C33.0717 16.6873 34.5267 16.9369 35.5945 16.4671C36.7997 15.937 38.8097 15.8588 39.6971 16.8881C40.0019 17.2417 41.3361 20.9195 40.4462 18.537" stroke="white" stroke-linecap="round" stroke-linejoin="round"/>
<path d="M11.7753 25.0977C18.3673 26.5179 25.3104 23.3875 31.7262 22.0043C34.0894 21.4949 36.5292 21.8851 38.9241 21.4457C39.9485 21.2577 41.6202 21.5472 40.3037 20.4617" stroke="white" stroke-linecap="round" stroke-linejoin="round"/>
<path d="M12.1591 27.9545C18.4352 28.8799 25.0581 26.3654 31.2184 25.137C34.021 24.5782 36.8058 23.9435 39.6136 23.4127C40.8937 23.1707 42.4014 23.6129 40.3228 23.2171" stroke="white" stroke-linecap="round" stroke-linejoin="round"/>
<path d="M11.5633 31.9793C16.2604 31.6253 20.6268 30.6546 25.1852 29.5118C27.9569 28.8169 30.7387 27.756 33.5865 27.4254C35.2205 27.2357 36.7864 26.7224 38.3867 26.4108C39.0314 26.2852 39.632 26.0127 40.2828 25.8978C41.7486 25.639 40.5747 26.0007 39.6667 26.0465" stroke="white" stroke-linecap="round" stroke-linejoin="round"/>
<path d="M11.2453 33.5933C13.5875 33.4115 16.4885 33.7784 18.7164 32.8633C19.5253 32.531 21.497 31.7447 22.3419 31.8347C23.4588 31.9537 24.6553 31.2181 25.7137 31.012C26.8159 30.7974 27.8932 30.5893 29.0141 30.4459C30.0652 30.3115 31.1191 29.4126 32.2317 29.4712C33.4711 29.5365 34.5829 28.9614 35.7614 28.787C36.7815 28.6361 38.2937 28.8613 39.3231 28.9557C39.8934 29.008 40.4311 28.8783 40.996 29.0354C42.141 29.3539 41.4412 29.0956 40.7058 28.4309" stroke="white" stroke-linecap="round" stroke-linejoin="round"/>
<path d="M45.7405 19.7477C46.5694 20.92 47.7198 22.2123 48.2033 23.6048C48.5154 24.5035 48.7453 25.3359 48.177 23.6994" stroke="white" stroke-linecap="round" stroke-linejoin="round"/>
<path d="M48.334 18.8978C49.5194 20.5665 50.2194 21.9101 50.7807 23.7545C51.1477 24.9604 51.1403 24.7055 50.723 23.4911" stroke="white" stroke-linecap="round" stroke-linejoin="round"/>
<path d="M51.677 18.6492C52.3659 20.4746 52.9322 22.3674 53.7449 24.1352C54.223 25.175 53.829 24.8001 53.4647 23.9918" stroke="white" stroke-linecap="round" stroke-linejoin="round"/>
<path d="M53.9263 18.0961C54.7737 19.8687 55.5161 21.5491 56.12 23.3916C56.3953 24.2318 55.8537 23.8173 55.6601 23.1618" stroke="white" stroke-linecap="round" stroke-linejoin="round"/>
<path d="M46.9358 19.6874C49.003 19.3243 51.0193 19.0285 53.0196 18.5569C53.5879 18.423 56.8921 17.7944 55.3309 18.225" stroke="white" stroke-linecap="round" stroke-linejoin="round"/>
<path d="M46.2121 22.7601C48.5575 22.6983 51.83 22.7377 53.7562 21.3228C54.3231 20.9065 55.0394 20.6157 55.748 20.5964C56.4668 20.5769 57.0363 20.7734 55.904 20.8726" stroke="white" stroke-linecap="round" stroke-linejoin="round"/>
<path d="M45.1657 21.8142C47.899 21.4711 49.9984 21.4603 52.4075 20.2346C53.0331 19.9163 53.6187 19.7086 54.2912 19.6091C55.0038 19.5037 55.8541 19.5582 54.5267 19.7038" stroke="white" stroke-linecap="round" stroke-linejoin="round"/>
<path d="M49.864 27.0498C50.174 28.0236 50.5115 28.9682 50.9064 29.8934C51.0695 30.2755 50.9521 29.7022 50.8694 29.5557" stroke="white" stroke-linecap="round" stroke-linejoin="round"/>
<path d="M52.8901 26.0582C52.903 26.1337 53.6358 30.5416 53.5912 29.6581" stroke="white" stroke-linecap="round" stroke-linejoin="round"/>
<path d="M55.1118 26.5452C55.2228 27.5779 55.6266 30.6647 55.4281 29.6451" stroke="white" stroke-linecap="round" stroke-linejoin="round"/>
<path d="M48.358 27.2856C50.0507 27.1972 53.6056 27.1909 55.257 26.2583C55.9078 25.8907 57.4075 25.9746 55.9223 25.985" stroke="white" stroke-linecap="round" stroke-linejoin="round"/>
<path d="M48.2566 27.6503C48.2863 27.7982 48.4631 31.2807 49.6468 30.6561C50.2509 30.3373 51.0379 29.922 51.7473 30.0618C52.9919 30.307 54.3865 28.9626 55.5903 29.2974C56.956 29.6773 57.495 28.8465 56.7979 27.8072C56.5239 27.3989 57.4072 26.925 56.9844 26.666C56.5973 26.4289 56.5216 26.1491 56.0778 25.8972" stroke="white" stroke-linecap="round" stroke-linejoin="round"/>
<path d="M45.8417 19.3831C45.4665 21.0975 45.2223 21.6284 45.8119 22.9688C45.971 23.3306 46.4815 23.4417 46.5999 23.7191C46.8342 24.268 47.6366 24.9479 48.256 24.8273C49.5015 24.5847 50.1356 24.2859 51.4587 24.6123C52.2934 24.8183 53.3428 24.533 54.092 24.1953C54.9154 23.8242 55.8509 23.8087 56.6931 23.4493C57.0517 23.2962 56.535 21.6948 56.9115 21.2256C57.0183 21.0926 55.725 20.0019 55.6011 19.7116C55.451 19.3598 55.4879 19.0724 55.594 18.6911C55.7489 18.1341 55.0042 18.3627 54.4799 17.9883" stroke="white" stroke-linecap="round" stroke-linejoin="round"/>
<path d="M11.5757 16.3992C12.5794 18.1936 13.2588 19.9922 13.9153 21.9026C14.4852 23.5613 15.4765 25.0214 16.057 26.6526C16.4703 27.8139 16.3996 29.615 16.3992 30.8365C16.399 31.2435 16.361 31.5926 16.2772 31.9812C16.0848 32.8726 16.9987 31.0937 17.1015 30.9009" stroke="white" stroke-linecap="round" stroke-linejoin="round"/>
<path d="M35.2195 17.0831C35.2685 17.8543 34.9379 21.6083 36.1033 19.5552" stroke="white" stroke-linecap="round" stroke-linejoin="round"/>
</g>
</svg>
