<svg width="36" height="55" viewBox="0 0 36 55" fill="none" xmlns="http://www.w3.org/2000/svg">
<g opacity="0.4">
<path d="M8.47057 40.5879C10.9351 36.121 10.7896 34.8449 10.2276 30.3486C9.91811 27.8726 9.79976 25.4534 9.17338 23.0175C8.05326 18.6615 7.68971 12.7957 11.197 9.28836C18.0983 2.38708 30.9503 12.2019 27.0589 20.9575C25.5778 24.2899 23.0187 26.7571 21.1697 29.9003C20.4282 31.1608 20.0129 32.5273 19.0492 33.7052C18.1249 34.8348 16.9771 36.2407 16.9771 37.6434C16.9771 38.8282 17.3303 40.3645 16.4924 41.4119C15.3348 42.8589 15.7463 42.1148 14.0325 42.1148C12.8544 42.1148 11.1171 41.1784 10.167 40.4183C9.4887 39.8756 9.12491 41.4452 9.12491 39.9336C9.12491 38.6361 9.54257 39.7155 8.68868 39.7155" stroke="white" stroke-linecap="round" stroke-linejoin="round"/>
<path d="M13.9233 44.7322C11.5907 44.0368 5.13415 42.4838 6.6285 44.4051C8.43149 46.7232 9.20257 45.5614 11.4149 46.0531C12.5463 46.3045 13.6494 49.7964 12.3964 49.8701C10.607 49.9753 9.4204 47.5677 7.5979 47.5677C5.93914 47.5677 6.05795 49.7508 7.05262 50.5244C8.36611 51.546 9.87656 50.4479 10.7606 52.0391C12.1576 54.5537 8.34165 54.1446 7.25861 53.5538C6.16748 52.9586 5.12939 52.0293 4.32617 51.4938" stroke="white" stroke-linecap="round" stroke-linejoin="round"/>
<path d="M8.47046 39.8792C8.50013 40.0691 8.53101 41.3514 9.04301 41.3514C9.31869 41.3514 9.4455 41.1842 9.69736 41.3242C9.99357 41.4887 10.2714 41.8761 10.5547 42.1027C10.8043 42.3025 11.5453 42.2778 11.6877 42.5268C11.9202 42.9337 12.3922 43.1565 12.8328 43.2054C13.404 43.2689 13.6152 43.5556 14.2233 43.4205C14.4091 43.3792 14.4279 43.2599 14.6019 43.2599C14.8707 43.2599 14.9867 43.3885 15.1896 43.163C15.4142 42.9134 15.7812 42.7966 15.8894 42.4178C16.0366 41.9028 16.576 41.6318 15.7773 41.9512" stroke="white" stroke-linecap="round" stroke-linejoin="round"/>
<path d="M18.9946 18.2856C18.019 18.2909 17.2127 18.3538 16.8801 19.3883C16.6539 20.0923 16.6499 20.784 16.6499 21.515C16.6499 22.2256 17.0861 22.797 17.0861 23.4659C17.0861 24.3501 16.379 24.2053 15.7805 24.4747C15.2151 24.7291 14.8055 24.9416 14.499 25.5107C14.1956 26.0743 14.4249 27.1641 14.4657 27.7767C14.5009 28.3039 14.7516 29.4243 14.3869 29.87C14.1888 30.1122 13.1061 30.4861 13.8144 29.9548" stroke="white" stroke-linecap="round" stroke-linejoin="round"/>
<path d="M27.2283 28.1554C28.0095 28.6744 28.8057 29.1093 29.679 29.4368C30.0452 29.5741 30.5274 29.8192 30.4455 29.246" stroke="white" stroke-linecap="round" stroke-linejoin="round"/>
<path d="M30.064 20.6304C31.4485 20.9637 32.8236 21.3393 34.196 21.7088C34.4243 21.7703 33.9004 21.1931 33.881 21.1757" stroke="white" stroke-linecap="round" stroke-linejoin="round"/>
<path d="M30.4456 13.4872C31.8793 13.2788 33.3088 13.0202 34.7352 12.7662C35.3918 12.6492 35.6699 12.7353 35.2986 12.1785" stroke="white" stroke-linecap="round" stroke-linejoin="round"/>
<path d="M22.7024 5.9076C23.8352 5.70853 24.8171 5.51672 25.8408 5.00484C26.32 4.76524 26.7814 4.47725 27.2828 4.28385C27.8787 4.05402 27.8909 4.12399 27.2283 3.72644" stroke="white" stroke-linecap="round" stroke-linejoin="round"/>
<path d="M12.8327 1C12.6673 2.15732 12.722 2.85047 13.1901 3.89912C13.4425 4.46444 13.656 5.17896 13.7809 5.78945C13.8239 5.99969 13.8478 6.11936 13.9899 6.27718C14.0431 6.33626 13.8479 5.63396 13.8142 5.5259" stroke="white" stroke-linecap="round" stroke-linejoin="round"/>
<path d="M4.48975 5.63501C4.85174 6.84023 5.3677 7.99633 5.67726 9.20362C5.83388 9.81442 5.73596 9.85155 5.47127 9.23392" stroke="white" stroke-linecap="round" stroke-linejoin="round"/>
<path d="M1 14.3051C2.23889 15.3773 3.25491 16.7083 4.2172 18.0251C4.3378 18.1902 4.47723 18.2488 4.61102 18.3826C4.91498 18.6866 4.39027 18 4.32626 17.904" stroke="white" stroke-linecap="round" stroke-linejoin="round"/>
</g>
</svg>
