<svg width="48" height="43" viewBox="0 0 48 43" fill="none" xmlns="http://www.w3.org/2000/svg">
<g opacity="0.4">
<path d="M10.2762 31.6685C10.9586 26.0058 8.81271 21.8631 7.3027 16.6351C7.00895 15.6181 5.92964 12.5735 6.83826 11.7103C8.27121 10.3491 9.67776 9.31064 11.6664 8.73625C12.9886 8.35438 14.3279 8.00879 15.6385 7.58901C16.9492 7.16915 18.0742 6.2617 19.3348 5.72417C21.6803 4.72404 24.3291 4.40833 26.7302 3.71482C28.6366 3.16418 30.6803 2.84211 32.5141 2.31246C32.8397 2.21843 34.2118 1.9903 34.4801 2.11714C35.3014 2.50535 35.3813 3.48524 36.0426 3.84143" stroke="white" stroke-linecap="round" stroke-linejoin="round"/>
<path d="M36.0458 4.32482C36.559 5.78948 37.1935 7.86952 38.2262 9.14726C38.8953 9.97526 38.9412 11.3212 39.3115 12.302C40.0223 14.1847 40.2779 16.146 40.818 18.0158C41.5424 20.5239 42.3834 22.9637 43.1038 25.4581C43.7222 27.5992 41.5267 27.8449 39.7855 28.0219C38.2812 28.1749 36.5138 29.2499 35.0296 29.6985C32.1661 30.564 29.3414 31.614 26.4633 32.4453C24.0595 33.1396 22.0729 32.9571 19.6168 32.7568C18.3053 32.6499 17.6194 32.9551 16.3497 33.3219C15.1472 33.6692 14.104 33.7668 13.0073 34.4917C12.3657 34.9158 11.0478 35.0903 10.4381 34.4841C9.70697 33.7572 10.5548 33.1055 10.3501 32.3968C10.1782 31.8017 9.61192 30.1216 10.2761 31.6685" stroke="white" stroke-linecap="round" stroke-linejoin="round"/>
<path d="M20.2578 12.4288C20.2578 12.4288 20.8337 12.535 21.4823 12.8929C22.0946 13.1251 23.0994 12.6304 23.9901 12.3731C24.4588 12.2377 24.8483 11.7294 25.2146 11.4212C25.9566 10.7969 25.6544 11.6553 25.5683 12.1217C25.4731 12.638 25.973 13.4024 26.4629 13.5672C27.2713 13.839 27.8215 13.2439 28.3852 12.7242C28.6192 12.5084 28.5258 12.4667 28.6642 12.6285C28.8519 12.8479 28.9374 13.2202 29.017 13.4959C29.1981 14.123 29.4579 15.177 29.2795 15.8205C29.0447 16.667 28.7322 17.2614 28.1735 17.9952C27.6216 18.7202 26.9563 19.8992 26.0222 20.1689C24.197 20.6961 22.1448 20.8579 20.7185 19.3458C20.1139 18.7048 19.2257 18.2936 18.9771 17.4331C18.7698 16.7151 18.2837 15.9234 18.323 15.1685C18.3707 14.2534 18.8612 13.2563 18.6096 13.329C18.7484 13.3286 19.6819 12.3225 20.2578 12.4288Z" stroke="white" stroke-linecap="round" stroke-linejoin="round"/>
<path d="M22.2066 11.3889C22.8387 10.9225 24.2968 9.90669 24.43 8.94064C24.533 8.19405 23.525 8.35014 23.0077 8.49954C22.3804 8.68074 21.8874 9.76251 21.8789 10.359C21.8741 10.6908 21.8761 11.0283 21.8738 11.3639C21.8727 11.5256 21.9628 11.6166 22.0333 11.7456C22.0869 11.8439 22.9012 11.0627 22.8234 10.9288" stroke="white" stroke-linecap="round" stroke-linejoin="round"/>
<path d="M38.7513 21.9475L11.328 30.5249C8.40003 31.4407 6.74037 34.5281 7.59165 37.4754C8.45632 40.4691 11.5842 42.1951 14.5779 41.3304L42.183 33.3572C45.3441 32.4442 47.1665 29.1414 46.2535 25.9803C45.3263 22.77 41.9405 20.95 38.7513 21.9475Z" fill="#C3C3C3" stroke="white" stroke-width="0.5"/>
<path d="M17.3854 28.6107C17.9904 29.1379 18.5757 29.8112 19.2282 30.272C19.5565 30.5038 19.5 30.4537 19.9175 30.1455C20.6144 29.6311 21.5585 29.5828 22.3727 29.3477C23.0875 29.1412 23.8108 28.528 24.5595 28.5144C25.4269 28.4987 26.2562 27.8109 27.0429 27.5633C27.9909 27.2648 28.9267 27.0917 29.8761 26.8176C30.4484 26.6522 30.9096 26.1561 31.4393 26.0031C31.7466 25.9144 32.693 25.9049 32.5527 25.3347C32.4844 25.057 32.5304 24.7548 32.4502 24.4772C32.3418 24.1019 32.1641 24.3293 31.7312 24.2494" stroke="white" stroke-linecap="round" stroke-linejoin="round"/>
</g>
</svg>
