<svg width="30" height="23" viewBox="0 0 30 23" fill="none" xmlns="http://www.w3.org/2000/svg">
<path opacity="0.4" d="M3.03764 19.9567C3.43879 19.4468 4.20702 18.5032 3.13026 18.3364C2.88669 18.2987 2.65918 18.1555 2.42017 18.2638C1.684 18.5975 1 19.3321 1 20.2055C1 21.6005 2.52996 21.9026 3.64138 21.8845C5.51653 21.854 6.08702 20.027 6.7493 18.5471C7.41829 17.0522 8.16141 15.5815 8.85554 14.0973C9.64097 12.4179 10.9291 11.0801 11.7439 9.41606C12.0933 8.70251 12.5496 8.07413 12.9994 7.42263C13.6973 6.41199 14.1949 5.39242 14.694 4.27183C15.1035 3.35246 15.5576 2.5129 16.0593 1.64272C16.2622 1.29082 16.186 0.751741 16.5739 1.12795C16.8684 1.41359 17.3369 1.60123 17.7333 1.67381C19.4663 1.99114 21.0599 2.32702 22.8446 2.18512C24.6495 2.04161 26.4535 1.783 28.2303 1.43888C28.8343 1.3219 28.5768 1.46273 28.292 1.82928C27.8089 2.45099 27.3964 3.10985 26.9336 3.73979C26.33 4.56129 26.1175 5.55064 25.7604 6.48983C25.3678 7.52223 24.9005 8.50836 24.5255 9.55771C23.8006 11.5857 22.7431 13.4352 21.4347 15.1372C20.6764 16.1237 19.7398 17.8465 18.3199 17.7767C16.1227 17.6688 17.6064 13.3435 18.6561 12.4978C19.2212 12.0425 19.8392 12.5326 19.9082 13.1438C20.0029 13.9836 19.7149 15.1344 18.8997 15.5449C18.0396 15.978 17.3802 15.926 18.0421 14.809C18.4425 14.1332 18.6807 14.877 18.8448 14.5465" stroke="white" stroke-width="2" stroke-linecap="round" stroke-linejoin="round"/>
</svg>
