<svg width="82" height="58" viewBox="0 0 82 58" fill="none" xmlns="http://www.w3.org/2000/svg">
<g opacity="0.3">
<path d="M12.8188 7.71773C11.7802 10.5141 8.0085 20.9733 6.32649 24.5798C1.69486 34.5109 7.69004 20.7307 4.9371 24.6177" stroke="white" stroke-width="2" stroke-linecap="round" stroke-linejoin="round"/>
<path d="M5.90014 8.54039C8.21773 4.80522 10.9257 -0.737988 15.5909 3.32255C17.7856 5.2328 19.3998 8.47544 19.5485 11.394C19.7782 15.9043 15.4009 19.5543 11.3087 20.1262C9.13105 20.4306 7.4253 20.1492 5.38247 19.4035C1.92208 18.1404 7.0622 15.7243 8.31066 14.9485" stroke="white" stroke-width="2" stroke-linecap="round" stroke-linejoin="round"/>
<path d="M15.8821 22.1502C21.0653 25.4088 26.3568 27.6708 24.3199 34.3487C23.1362 38.2296 21.7011 42.9467 18.4936 45.6532C15.5955 48.0986 12.5883 48.7835 10.4093 45.3323C7.29569 40.4006 9.72671 36.9692 14.5407 35.2345C16.3131 34.5958 21.4744 34.4546 22.5177 32.9814" stroke="white" stroke-width="2" stroke-linecap="round" stroke-linejoin="round"/>
<path d="M29.0103 22.6597C27.9124 23.8536 21.3474 33.1482 18.7684 31.4614C18.2848 31.145 17.7153 31.1107 17.1584 31.0251C15.0175 30.6958 16.4821 30.6662 17.653 30.2626C20.3049 29.3487 22.5331 31.9507 25.6334 30.4418C29 28.8032 30.61 27.9647 29.9588 24.3988C29.5023 21.8997 31.8979 19.8879 28.2731 22.5464" stroke="white" stroke-width="2" stroke-linecap="round" stroke-linejoin="round"/>
<path d="M42.337 19.4267C41.1997 25.1351 38.969 32.04 39.3954 38.0088C39.508 39.5861 40.5816 39.0402 41.1187 38.2528C41.7975 37.2579 42.2205 36.0695 42.593 34.9368" stroke="white" stroke-width="2" stroke-linecap="round" stroke-linejoin="round"/>
<path d="M28.7553 26.7713C32.6687 27.7283 41.0498 31.817 45.0312 28.8971" stroke="white" stroke-width="2" stroke-linecap="round" stroke-linejoin="round"/>
<path d="M46.0518 22.2621C42.9361 54.8525 41.5228 29.403 51.2679 29.9192C57.1832 30.2326 48.949 42.6231 53.7935 38.1688" stroke="white" stroke-width="2" stroke-linecap="round" stroke-linejoin="round"/>
<path d="M58.4714 29.8321C57.9364 31.6122 52.8437 42.2602 57.7443 42.4658C59.9355 42.5577 62.9964 41.9444 64.5714 40.3293C66.2615 38.5963 68.5434 32.7742 65.4058 31.3597C63.9739 30.7142 61.8254 29.2859 60.1585 29.9029C58.5471 30.4993 56.1326 32.8555 59.0952 30.6827" stroke="white" stroke-width="2" stroke-linecap="round" stroke-linejoin="round"/>
<path d="M69.5018 34.1697C74.9724 34.4102 79.9571 36.7399 76.5122 42.8365C76.0799 43.6016 75.4581 44.5108 75.3214 45.3996C75.1629 46.4303 76.2369 43.2528 75.797 42.3073" stroke="white" stroke-width="2" stroke-linecap="round" stroke-linejoin="round"/>
<path d="M67.6872 36.1547C65.7572 39.2503 62.4867 42.9808 61.9065 46.7534C61.8867 46.8823 61.7032 47.8437 61.8183 47.3268C62.046 46.3047 62.2881 45.6722 62.2719 44.3779" stroke="white" stroke-width="2" stroke-linecap="round" stroke-linejoin="round"/>
</g>
</svg>
