<svg width="78" height="64" viewBox="0 0 78 64" fill="none" xmlns="http://www.w3.org/2000/svg">
<g opacity="0.3">
<path d="M2.9374 32.0784C5.69455 37.4362 8.46071 42.7893 11.2102 48.151C11.9938 49.6792 14.8911 53.6414 13.3812 52.8232C11.3338 51.7136 9.49176 48.6977 8.06027 46.9628C6.03997 44.5142 2.02197 39.5956 4.50449 36.0907C6.37842 33.445 12.3636 33.1873 15.0814 34.4771C17.0005 35.3878 15.6556 33.1855 15.9417 31.6754" stroke="white" stroke-width="2" stroke-linecap="round" stroke-linejoin="round"/>
<path d="M21.9197 34.7524C26.5944 35.724 34.2633 37.7009 34.2063 30.6709C34.1802 27.4407 30.8024 26.671 28.478 28.2137C22.7817 31.9943 23.8919 42.5632 27.6756 47.1512C31.4585 51.7383 36.4916 47.6151 39.4274 44.4101C41.0519 42.6367 39.0756 41.9054 39.6713 39.8176" stroke="white" stroke-width="2" stroke-linecap="round" stroke-linejoin="round"/>
<path d="M43.4356 30.4703C38.9081 33.3354 33.6429 37.6446 37.2196 43.5515C38.9436 46.3986 42.6842 41.6805 43.6382 40.1723C45.4603 37.2916 43.3541 26.56 43.7372 29.947C44.0735 32.9192 44.6867 36.1184 46.5537 38.5513C47.7595 40.1226 51.5704 41.9571 50.4659 38.5097" stroke="white" stroke-width="2" stroke-linecap="round" stroke-linejoin="round"/>
<path d="M57.703 16.99C54.1501 23.2625 49.5663 30.4351 54.7095 37.1458C57.2379 40.4447 61.1798 39.6208 64.1621 37.39C66.2461 35.8311 66.2469 32.7546 65.6409 30.4989" stroke="white" stroke-width="2" stroke-linecap="round" stroke-linejoin="round"/>
<path d="M62.338 12.2793C62.5042 12.876 68.1435 38.4071 73.0993 31.5911C74.4715 29.7039 74.7333 26.9641 74.405 24.7725" stroke="white" stroke-width="2" stroke-linecap="round" stroke-linejoin="round"/>
<path d="M56.6196 26.5536C60.4839 25.1166 64.4332 23.7975 68.0507 21.7861C68.9902 21.2638 70.0983 20.0727 71.2781 20.0865C71.9409 20.0942 70.5386 19.8298 70.3462 19.7749" stroke="white" stroke-width="2" stroke-linecap="round" stroke-linejoin="round"/>
</g>
</svg>
