<svg width="226" height="289" viewBox="0 0 226 289" fill="none" xmlns="http://www.w3.org/2000/svg">
<g filter="url(#filter0_d_1194_18557)">
<path d="M49.6527 177.744C14.1139 196.877 14.1176 227.883 49.6527 247.034C85.1877 266.184 142.809 266.167 178.347 247.034C213.886 227.901 213.882 196.894 178.347 177.744C142.812 158.593 85.1915 158.618 49.6527 177.744Z" fill="#FAFAFA"/>
</g>
<g filter="url(#filter1_d_1194_18557)">
<path d="M83.2545 203.4L85.5974 202.125L83.2188 201.551L83.2545 203.4Z" fill="#263238"/>
<path d="M107.129 206.969C107.129 206.969 78.5144 195.157 78.1746 197.096C78.0928 197.474 78.0928 197.866 78.1746 198.245V198.137L78.8364 201.727C80.1273 202.71 81.6739 203.296 83.2895 203.415V201.62C84.1735 201.95 85.0239 202.365 85.8291 202.858C87.6175 204.007 88.9231 206.072 90.9261 208.459C92.3926 210.255 94.9143 210.937 98.6343 211.332C102.622 211.763 106.11 210.865 107.058 209.734C107.304 209.318 107.439 208.845 107.452 208.361C107.464 207.877 107.353 207.398 107.129 206.969Z" fill="#263238"/>
<path d="M106.322 206.344C105.459 205.448 104.546 204.602 103.586 203.812C102.244 202.621 100.841 201.5 99.3828 200.455C98.6486 199.974 97.9548 199.434 97.3082 198.84C96.7919 198.333 96.3024 197.8 95.8417 197.242C94.585 195.668 93.4886 193.972 92.5689 192.179C91.8321 190.855 91.479 189.35 91.5495 187.835C91.5372 183.586 91.7941 179.341 92.3185 175.125L78.7265 175.34C79.1915 177.494 79.4597 181.175 79.7638 183.634C80.4017 186.431 80.1451 189.358 79.0305 192C78.5222 193.064 78.1899 194.204 78.0469 195.375C78.1461 196.331 78.4987 197.244 79.0679 198.017C79.6371 198.79 80.4023 199.397 81.2839 199.773C82.6968 200.491 84.2885 200.778 85.6656 201.568C87.0481 202.464 88.2595 203.601 89.2424 204.925C90.1116 206.234 91.1868 207.392 92.4258 208.354C93.8657 209.138 95.4463 209.626 97.0758 209.79C99.1304 210.049 101.209 210.049 103.264 209.79C106.233 209.503 108.379 208.354 106.322 206.344Z" fill="#B16668"/>
<path d="M104.642 204.244C103.372 203.257 101.602 201.856 99.4557 200.259C98.7292 200.039 97.9646 199.977 97.2124 200.076C96.4602 200.175 95.7375 200.433 95.0919 200.833C93.9727 201.387 92.9782 202.165 92.1693 203.119C91.3605 204.073 90.7544 205.183 90.3884 206.38C91.1564 207.781 92.4403 208.825 93.9652 209.288C98.8834 211.245 107.522 210.24 107.522 207.978C107.486 206.596 106.162 205.501 104.642 204.244ZM79.2822 191.121C79.2822 191.121 79.0139 191.875 78.3343 193.347C77.9612 194.018 77.782 194.78 77.8167 195.547C77.8515 196.315 78.0989 197.057 78.5311 197.691C79.0293 198.428 79.6745 199.052 80.4257 199.525C81.1769 199.997 82.0177 200.308 82.8948 200.438C83.2696 198.708 83.1267 196.906 82.4839 195.258C81.8411 193.61 80.7272 192.189 79.2822 191.175V191.121Z" fill="#37474F"/>
<path d="M57.3725 196.273C58.1594 197.565 57.1221 202.43 57.3725 205.895C57.5335 209.037 58.3562 214.512 57.3725 217.618C56.2279 221.298 53.903 225.571 49.5928 222.124C48.1843 220.99 47.0445 219.557 46.2557 217.927C45.467 216.297 45.0491 214.511 45.0323 212.699C44.782 209.557 46.0339 205.195 47.1069 201.335C48.3588 196.829 48.8954 194.424 48.8954 194.424L57.3725 196.273Z" fill="#263238"/>
<path d="M48.5222 173.076C48.2182 180.418 49.0588 185.642 49.1124 190.256C49.0894 192.391 48.8679 194.518 48.4507 196.611C47.8248 199.609 46.7875 203.792 46.3583 205.713C45.521 208.124 45.4709 210.74 46.2152 213.181C46.2905 213.419 46.3925 213.648 46.5192 213.863C47.8248 216.377 51.1333 218.279 52.2064 217.974C52.4138 218.24 52.6917 218.441 53.008 218.556C53.3243 218.67 53.6663 218.692 53.9948 218.621H54.3525C54.4766 218.586 54.5965 218.538 54.7102 218.477C55.1519 218.241 55.5392 217.914 55.8473 217.518C56.1553 217.123 56.3773 216.666 56.4986 216.179C56.4986 215.964 56.6238 215.748 56.6775 215.515C57.1449 212.973 57.1932 210.371 56.8206 207.813C56.7311 206.108 56.8206 203.936 56.9815 201.189C57.2551 195.981 57.8524 190.794 58.77 185.66C59.4853 182.788 60.3616 179.162 61.2916 175.302L48.5222 173.076Z" fill="#B16668"/>
<path d="M45.6994 209.249C48.3284 208.082 55.9113 207.92 57.1096 211.636C57.1096 215.119 57.1096 217.489 54.9814 220.523C52.0483 224.562 48.2569 220.289 46.7903 217.561C45.5851 214.968 45.2042 212.066 45.6994 209.249Z" fill="#37474F"/>
<path d="M58.4115 77.283C54.7094 83.9432 51.7406 89.5443 50.7749 107.102C49.6839 126.849 49.8449 134.479 49.7555 136.866C49.666 139.254 48.128 143.652 46.8224 155.429C45.5169 167.205 46.8224 195.785 46.8224 195.785C46.8224 195.785 47.7345 197.706 52.1877 198.137C54.4377 198.453 56.7303 198.084 58.7692 197.078C58.7692 197.078 65.3506 159.576 66.9601 152.485C68.5697 145.394 73.327 122.092 73.327 122.092L75.9023 141.049C75.0528 146.627 75.0107 152.298 75.7771 157.888C76.9575 168.229 79.1751 188.03 79.1751 188.03C81.0164 189.237 83.1088 190.005 85.2915 190.274C87.6264 190.561 89.9895 190.049 91.9982 188.82C91.9982 188.82 96.0043 147.799 96.0937 136.076C96.1831 124.354 95.271 95.1095 91.7299 77.7318L58.4115 77.283Z" fill="#455A64"/>
<path d="M77.3698 99.5819L73.5068 122.094L76.0821 141.051L75.0628 121.843L78.4965 103.37C81.3223 102.724 87.7606 99.3844 89.549 94.5553C85.1137 99.0792 77.3698 99.5819 77.3698 99.5819ZM64.3143 86.3152C64.815 84.4123 65.3516 82.5453 65.9596 80.6423C64.9151 82.3417 64.0519 84.1469 63.3843 86.028C62.6827 87.8899 62.0856 89.7898 61.5959 91.7188C61.1488 93.6397 60.7553 95.5965 60.487 97.5533C60.1917 99.5139 60.0482 101.495 60.0578 103.478C60.5407 101.557 60.9878 99.6357 61.4349 97.7328C61.882 95.8299 62.3291 93.909 62.812 92.0061C63.2949 90.1031 63.742 88.2002 64.2428 86.3152H64.3143ZM61.4886 84.8611C62.1324 83.7122 62.7762 82.5632 63.277 81.2707C62.2904 82.1826 61.3921 83.1864 60.5943 84.2687C59.7812 85.3329 59.0461 86.4548 58.3946 87.6257C57.7481 88.78 57.1862 89.98 56.7135 91.2162C56.2422 92.4829 55.9298 93.8035 55.7835 95.1477L57.5719 91.5573C58.1978 90.3904 58.8059 89.2414 59.3603 88.0925C59.9147 86.9436 60.7732 86.028 61.417 84.8611H61.4886ZM58.5913 160.099C57.4646 166.202 56.3915 172.306 55.4258 178.428C56.8804 172.444 58.2575 166.4 59.557 160.296C60.8626 154.228 62.0966 148.178 63.3306 142.075C64.5647 135.971 65.28 129.795 65.9239 123.638C66.5677 117.48 67.0685 111.287 67.4977 105.093C66.5856 111.233 65.7093 117.372 64.976 123.512C64.2428 129.652 63.277 135.791 62.1145 141.841C60.952 147.891 59.6465 153.977 58.5198 160.099H58.5913ZM90.783 129.58C90.8904 132.273 91.0334 134.966 90.9619 137.623C90.8904 140.279 90.7115 143.008 90.5505 145.683L90.0856 153.78C89.7636 159.165 89.5133 164.551 89.3344 169.936C90.0021 164.563 90.5982 159.177 91.1229 153.78C91.6057 148.394 92.0528 143.008 92.2853 137.623C92.5178 132.237 91.874 126.851 91.4269 121.466C90.9798 116.08 90.3717 110.694 89.6385 105.309L90.5327 121.466C90.4254 124.123 90.5684 126.815 90.6757 129.508L90.783 129.58Z" fill="#37474F"/>
<path d="M143.542 42.4223C143.632 41.8299 143.417 40.8784 142.594 40.9861C142.408 41.0199 142.231 41.0934 142.076 41.2016C140.287 42.2428 138.839 43.4995 137.158 44.5586C136.395 45.1474 135.536 45.5971 134.618 45.8871C133.384 46.0846 134.618 44.5227 134.94 44.0919C135.21 43.6794 135.449 43.2474 135.655 42.7993C135.935 42.0172 136.002 41.1748 135.852 40.3578C135.87 40.2629 135.87 40.1655 135.852 40.0706C135.778 39.9859 135.68 39.9265 135.571 39.9008C135.462 39.875 135.348 39.8842 135.244 39.927C135.037 40.0151 134.853 40.1503 134.707 40.3219C133.938 41.1118 133.205 41.9197 132.382 42.6378C131.56 43.3558 130.505 44.0739 129.61 44.8638C128.323 46.0128 127.25 47.3771 126.034 48.4543C124.671 49.5298 123.135 50.3618 121.491 50.9137C117.163 52.7987 109.169 54.935 104.143 56.425C104.143 56.425 94.6824 46.8565 91.4989 43.9662C89.276 42.1349 86.6822 40.8116 83.8981 40.0885L83.0039 55.7249C83.0039 55.7249 93.2874 63.7495 97.4008 67.2502C98.2656 68.1755 99.3229 68.8981 100.498 69.3666C101.672 69.8351 102.935 70.038 104.197 69.961C106.959 69.2801 109.601 68.1782 112.03 66.6937C116.716 64.324 122.761 60.572 126.338 58.3818C128.519 57.0354 131.005 56.9815 133.491 56.3353C135.876 55.6581 138.069 54.4283 139.894 52.7448C140.586 52.1198 141.188 51.4007 141.682 50.6085C142.152 49.9005 142.406 49.0712 142.416 48.2209C142.367 47.9491 142.395 47.6692 142.496 47.4124C142.597 47.1557 142.768 46.9321 142.988 46.7668C143.431 46.2753 143.674 45.6344 143.667 44.9715C143.558 44.1265 143.516 43.2741 143.542 42.4223Z" fill="#B16668"/>
<path d="M54.2115 86.117C52.8702 84.4295 55.5528 79.9773 55.0878 74.4301C54.8553 71.5757 53.4961 63.3177 53.4961 63.3177C53.4961 63.3177 59.0402 55.3649 57.4128 41.7751L65.5859 39.3157L77.6757 38.7771L83.7027 40.1235C86.3276 42.5597 88.6677 45.2881 90.6776 48.2558C94.2544 53.6415 94.7731 59.2964 90.9279 63.4972C90.9279 64.323 91.4108 77.0691 92.4481 80.1748C93.4854 83.2805 93.2171 85.0758 91.6791 86.3683C85.9203 92.9388 68.036 94.8417 54.2115 86.117Z" fill="#F5F5F5"/>
<path d="M77.606 39.7287L83.2753 40.9854C85.763 43.3338 87.9824 45.953 89.8925 48.7946C93.4693 54.1802 93.5766 59.2427 90.2144 62.9229C90.0833 63.074 90.0021 63.2622 89.9819 63.4615C89.9819 64.2514 90.429 77.1231 91.5557 80.4981C92.6824 83.8731 91.8597 85.0221 91.055 85.7043L90.9477 85.812C88.0862 89.0793 81.8982 91.1976 74.8518 91.1976C67.7839 91.1982 60.8528 89.2414 54.8214 85.5427C54.6527 84.3357 54.7691 83.1058 55.1612 81.9523C55.8117 79.5013 56.0772 76.9634 55.9481 74.4303C55.7514 71.8811 54.6604 65.2208 54.3921 63.659C55.4115 62.0612 59.5786 54.5572 58.3446 42.6011L65.695 40.393L77.5702 39.8724M77.5702 38.9568L65.4804 39.4954L57.3073 41.9548C58.9348 55.5087 53.3906 63.4974 53.3906 63.4974C53.3906 63.4974 54.7498 71.7554 54.9823 74.6098C55.4473 80.157 52.7647 84.6092 54.106 86.2967C60.3196 90.1472 67.478 92.186 74.7803 92.185C82.1665 92.185 88.5333 90.0307 91.5736 86.5839C93.1117 85.2914 93.362 83.2807 92.3426 80.3904C91.3232 77.5001 90.7688 64.5386 90.8225 63.7128C94.6676 59.512 94.1311 53.7673 90.5721 48.4714C88.5622 45.5037 86.2222 42.7753 83.5972 40.3391L77.5702 38.9927V38.9568Z" fill="#E0E0E0"/>
<path d="M60.1115 11.6352C59.4562 12.2624 58.9356 13.0175 58.5819 13.8542C58.2282 14.6909 58.0488 15.5914 58.0548 16.5003C58.402 20.7419 59.7907 24.8312 62.0967 28.4026C63.2879 30.8191 64.8851 33.0114 66.8182 34.8833C68.9285 36.6785 72.1834 36.9658 74.8124 37.0914C75.5993 37.0914 76.3862 37.3428 76.9228 36.7503C77.3685 36.1125 77.6846 35.3926 77.8528 34.632C78.4071 32.9693 79.1198 31.3641 79.981 29.8387C80.4766 28.7206 81.1401 27.6853 81.9483 26.7689C82.2276 26.5497 82.5421 26.3797 82.8783 26.2663C84.4439 25.9878 85.932 25.3756 87.242 24.4711C87.7528 23.9602 88.0979 23.3062 88.2319 22.595C88.366 21.8838 88.2827 21.1486 87.9932 20.4857C88.6537 20.9589 89.4507 21.2012 90.2618 21.1752C91.0729 21.1493 91.853 20.8565 92.4821 20.342C92.0327 20.3553 91.5917 20.2178 91.2289 19.9511C90.8661 19.6845 90.6022 19.304 90.4791 18.87C90.1572 17.5415 91.2302 16.3208 91.731 15.0462C92.1944 13.8945 92.1944 12.6073 91.731 11.4557C91.2181 10.2952 90.2751 9.38088 89.102 8.90651C87.9395 8.45771 86.6876 8.69109 85.5251 8.27819C84.3626 7.86529 83.6294 6.48297 82.753 5.51355C81.8392 4.4177 80.6642 3.57166 79.3372 3.0541C78.5034 2.73487 77.6101 2.60317 76.7201 2.66831C75.8301 2.73345 74.9653 2.99384 74.1865 3.4311C73.8316 3.68183 73.4613 3.90968 73.0777 4.11328C71.6697 4.49098 70.1925 4.52789 68.7675 4.221C67.8591 4.16961 66.9506 4.31993 66.1067 4.66126C65.2628 5.00258 64.5043 5.52652 63.8851 6.19573C63.1171 7.13053 62.589 8.24002 62.3471 9.42712C62.2946 9.77706 62.1597 10.1094 61.9536 10.3965C61.7885 10.554 61.6018 10.687 61.3992 10.7915C60.9372 11.0187 60.5047 11.3021 60.1115 11.6352Z" fill="#263238"/>
<path d="M64.0505 30.6836C63.3866 30.7732 62.7109 30.6936 62.0858 30.452C61.4606 30.2104 60.9062 29.8147 60.4736 29.3013C58.5779 27.2009 58.3991 25.0825 59.2754 23.6463C59.6553 23.0245 60.2516 22.5664 60.9488 22.3608C61.646 22.1552 62.3944 22.2166 63.049 22.5333C63.9204 23.1225 64.5593 23.9988 64.8553 25.0107C65.3739 25.9981 66.6437 25.2261 66.2324 21.4203C68.8435 20.1816 68.4143 15.8012 69.8092 14.006C70.6579 13.0202 71.8091 12.3458 73.0816 12.089C74.3541 11.8323 75.6755 12.0077 76.8378 12.5878C77.5473 12.0499 78.3938 11.7242 79.2797 11.6479C80.1656 11.5717 81.055 11.7481 81.8454 12.1569C83.6338 13.1084 84.7784 15.0831 85.4222 21.905C86.0661 28.7268 84.8499 33.4841 83.2582 34.9562C81.6629 36.1684 79.6683 36.7267 77.6783 36.518V39.1211C77.6783 39.1211 84.7069 46.4815 75.7468 45.8173C73.741 45.644 71.7958 45.0397 70.043 44.0454C68.2903 43.0512 66.7711 41.6901 65.5886 40.0546V29.5167C65.5886 29.5167 65.3739 30.4322 64.0505 30.6836Z" fill="#B16668"/>
<path d="M78.7665 29.4439C78.6621 29.9677 78.3548 30.4284 77.9121 30.7246C77.4694 31.0209 76.9275 31.1285 76.4058 31.0237C75.884 30.919 75.4251 30.6105 75.1299 30.1661C74.8348 29.7217 74.7276 29.1778 74.8319 28.6541L78.7665 29.4439Z" fill="#9A4A4D"/>
<path d="M74.832 29.3177C74.8656 29.7476 75.0371 30.155 75.3208 30.4787C75.6046 30.8024 75.9854 31.0249 76.4059 31.113C76.6422 31.1577 76.8848 31.1577 77.1212 31.113C77.0903 30.8434 77.0063 30.5827 76.874 30.346C76.7418 30.1093 76.564 29.9014 76.351 29.7344C76.138 29.5673 75.894 29.4444 75.6332 29.3729C75.3724 29.3014 75.1001 29.2826 74.832 29.3177Z" fill="#F28F8F"/>
<path d="M74.7047 22.2454C74.6671 22.3974 74.599 22.54 74.5045 22.6645C74.41 22.789 74.2912 22.8929 74.1553 22.9697C74.0194 23.0465 73.8693 23.0946 73.7142 23.111C73.5591 23.1275 73.4023 23.112 73.2534 23.0654C73.1045 23.0189 72.9667 22.9423 72.8484 22.8403C72.73 22.7384 72.6337 22.6132 72.5653 22.4726C72.4969 22.3319 72.4578 22.1787 72.4505 22.0223C72.4432 21.8659 72.4678 21.7097 72.5228 21.5632C72.6062 21.2659 72.8036 21.0139 73.0718 20.8625C73.34 20.7111 73.6571 20.6726 73.9535 20.7554C74.2465 20.8578 74.4886 21.0703 74.6287 21.3482C74.7688 21.6261 74.796 21.9478 74.7047 22.2454Z" fill="#263238"/>
<path d="M83.7034 19.5169L81.2891 18.2243C81.3669 18.0668 81.4751 17.9263 81.6074 17.8111C81.7398 17.6958 81.8936 17.6081 82.06 17.553C82.2263 17.4979 82.4019 17.4765 82.5766 17.49C82.7513 17.5036 82.9215 17.5518 83.0775 17.6319C83.4037 17.8045 83.651 18.097 83.7676 18.4482C83.8842 18.7994 83.8612 19.1823 83.7034 19.5169Z" fill="#263238"/>
<path d="M80.9452 22.3001C81.0505 22.5904 81.2646 22.828 81.5419 22.9622C81.8192 23.0963 82.1377 23.1164 82.4296 23.0182C82.7162 22.9059 82.9468 22.6841 83.0709 22.4015C83.1949 22.1188 83.2023 21.7983 83.0913 21.5102C82.9895 21.2166 82.7769 20.9748 82.4992 20.8371C82.2215 20.6994 81.901 20.6768 81.6069 20.7742C81.3219 20.8938 81.094 21.1194 80.9707 21.4037C80.8474 21.688 80.8382 22.0092 80.9452 22.3001Z" fill="#263238"/>
<path d="M73.7935 17.5438L71.2361 18.9441C71.1349 18.7819 71.0679 18.6006 71.0393 18.4114C71.0106 18.2222 71.0209 18.0291 71.0695 17.844C71.1181 17.659 71.204 17.4859 71.3219 17.3355C71.4397 17.185 71.587 17.0604 71.7547 16.9694C72.104 16.7891 72.5083 16.7482 72.8865 16.8548C73.2646 16.9613 73.5887 17.2075 73.7935 17.5438Z" fill="#263238"/>
<path d="M81.2883 24.9022L77.7829 26.859L76.6562 19.9294L81.2883 24.9022Z" fill="#9A4A4D"/>
<path d="M77.6561 36.5882C74.0793 36.4446 69.4472 35.2059 68.1953 32.9978C68.6236 34.0878 69.3182 35.0521 70.2152 35.8019C71.1122 36.5517 72.1827 37.0629 73.3281 37.2884C74.7336 37.6946 76.1787 37.9474 77.6382 38.0424L77.6561 36.5882Z" fill="#9A4A4D"/>
<path d="M112.761 79.7652C110.579 79.969 108.38 79.8966 106.216 79.5497C106.136 79.537 106.056 79.5416 105.978 79.5633C105.901 79.585 105.83 79.6233 105.769 79.6754C105.611 79.8809 105.468 80.0969 105.339 80.3217L104.713 81.0398C104.427 81.327 100.904 85.7433 100.958 85.7792L102.621 86.6409C102.621 86.6409 107.986 92.601 111.384 90.4108C112.153 89.9081 113.065 90.1595 113.852 89.8184C114.19 89.6739 114.509 89.4869 114.8 89.2619L112.761 79.7652Z" fill="#FFBDA7"/>
<path d="M113.443 89.3501C110.564 88.4753 107.962 86.86 105.896 84.6646C105.736 84.5218 105.611 84.3438 105.53 84.1446C105.449 83.9453 105.416 83.7301 105.431 83.5156C105.503 83.2504 105.653 83.0129 105.86 82.8334L107.255 81.3434C107.858 80.7474 108.375 80.0708 108.793 79.3328C109.068 78.8751 109.176 78.3355 109.097 77.8068C108.972 77.2862 108.811 77.0349 108.275 76.999C108.096 76.999 107.685 77.2324 107.13 77.6991C105.627 78.7103 104.048 79.6045 102.409 80.374C100.537 81.6022 98.3808 82.3255 96.1492 82.4744C91.1774 81.5409 73.4004 74.6293 73.4004 74.6293C73.4004 74.6293 67.1588 58.1672 65.263 54.2356C63.3673 50.3041 60.7026 44.0926 57.3761 41.8845C50.7052 44.4517 47.9689 51.4889 51.1345 58.7057C54.3 65.9225 58.2882 75.1858 60.792 80.2483C63.099 84.7723 64.1184 86.2085 68.2855 87.4292C78.4438 90.2656 91.5351 91.0196 97.5621 92.9405C100.348 93.5893 103.234 93.6868 106.057 93.2278C106.639 93.1773 107.211 93.0443 107.756 92.8328C108.257 92.6174 108.704 92.2763 109.223 92.0609C110.104 91.8084 111 91.6106 111.905 91.4684C112.782 91.2623 113.579 90.8 114.194 90.14C114.194 90.14 114.767 89.5476 114.767 89.4219C114.33 89.5508 113.863 89.5255 113.443 89.3501Z" fill="#B16668"/>
<path d="M107.06 92.9395C106.458 93.0476 105.837 92.9791 105.272 92.742C104.503 92.1137 103.716 91.8623 103.144 90.9468C102.948 90.6356 102.726 90.3414 102.482 90.0671C102.03 89.6685 101.5 89.3689 100.926 89.1875C100.39 88.99 99.9066 88.7027 99.3522 88.5232C99.084 88.5232 98.6547 88.4155 98.5296 88.7387C98.2895 88.4405 98.0061 88.1803 97.689 87.9667C97.3492 87.7513 96.5265 87.482 96.294 87.9667C96.2584 88.1142 96.2584 88.2681 96.294 88.4155C96.294 89.3131 96.294 90.2107 96.1688 91.1263C96.1416 91.3529 96.1416 91.5819 96.1688 91.8085C96.2605 92.0631 96.403 92.2963 96.5875 92.4939C96.772 92.6914 96.9946 92.8491 97.2419 92.9574C97.5246 93.108 97.825 93.2226 98.1361 93.2985C98.5117 93.2985 98.9051 93.2985 99.2807 93.4062C100.068 93.5678 100.729 94.1782 101.534 94.2141C102.032 94.1808 102.527 94.1209 103.019 94.0345C103.426 94.0498 103.832 94.0917 104.235 94.1602C105.226 93.8786 106.175 93.4682 107.06 92.9395Z" fill="#FFBDA7"/>
<path d="M100.224 81.7533L99.1335 82.256C98.1856 82.7586 97.345 83.4947 96.5045 84.0512C95.9669 84.4475 95.3604 84.7397 94.716 84.9129C94.2689 84.9129 93.2317 85.1283 93.0528 84.5C93.0364 84.3966 93.0406 84.2911 93.0651 84.1894C93.0897 84.0877 93.1341 83.9919 93.1959 83.9076C93.5715 83.1895 93.9828 82.5073 94.4299 81.8251C94.7891 81.136 95.2816 80.5257 95.8785 80.0299C96.629 79.5043 97.4322 79.0591 98.275 78.7014C98.6377 78.5352 99.0149 78.403 99.4017 78.3065C100.112 78.1814 100.838 78.1814 101.548 78.3065L105.125 78.8091L104.248 79.4375L102.925 80.2094C102.052 80.7709 101.151 81.2862 100.224 81.7533Z" fill="#FFBDA7"/>
<path d="M173.602 215.855C173.617 218.467 174.281 221.034 175.533 223.323C176.128 224.2 176.989 224.859 177.989 225.202C178.989 225.546 180.072 225.554 181.077 225.226C182.444 224.934 183.717 224.306 184.782 223.397C185.847 222.488 186.669 221.328 187.176 220.02C187.795 217.413 187.758 214.692 187.068 212.103L173.602 215.855Z" fill="#263238"/>
<path d="M182.53 191.494C183.424 191.494 183.764 196 184.318 200.47C184.944 205.263 186.411 207.92 186.929 211.134C187.627 215.604 187.358 217.632 185.856 220.379C184.354 223.126 178.452 226.016 175.734 222.174C173.516 219.033 173.373 215.532 173.498 211.044C173.623 206.556 173.784 203.145 173.498 199.626C173.212 196.108 172.997 193.002 173.784 192.625C173.784 193.11 173.909 193.738 173.981 194.223C174.052 194.707 174.16 196.413 174.661 196.431C174.705 196.007 174.705 195.58 174.661 195.156C174.598 194.78 174.681 194.395 174.893 194.079C175.162 193.807 175.515 193.636 175.895 193.594C176.78 193.392 177.676 193.236 178.577 193.128C179.03 193.1 179.484 193.1 179.936 193.128C180.489 193.065 181.047 193.065 181.6 193.128C181.708 193.166 181.809 193.225 181.895 193.302C181.98 193.379 182.05 193.472 182.1 193.576C182.119 193.749 182.119 193.924 182.1 194.097C182.098 194.407 182.14 194.715 182.226 195.013C182.226 195.138 182.351 195.3 182.476 195.282C182.601 195.264 182.619 195.102 182.619 194.995C182.619 194.456 182.619 194.061 182.512 193.433C182.512 193.145 182.512 192.751 182.512 192.463C182.512 192.176 182.548 191.763 182.53 191.494Z" fill="#37474F"/>
<path opacity="0.15" d="M183.635 212.303C183.64 212.346 183.636 212.389 183.625 212.43C183.613 212.471 183.593 212.509 183.567 212.543C183.54 212.576 183.507 212.604 183.47 212.624C183.432 212.645 183.391 212.658 183.349 212.662C183.266 212.667 183.185 212.64 183.122 212.587C183.058 212.533 183.018 212.458 183.009 212.375C182.998 212.328 182.997 212.278 183.007 212.23C183.018 212.183 183.039 212.138 183.069 212.099C183.099 212.061 183.138 212.03 183.181 212.009C183.225 211.987 183.273 211.976 183.322 211.976C183.371 211.976 183.419 211.987 183.462 212.009C183.506 212.03 183.545 212.061 183.575 212.099C183.605 212.138 183.626 212.183 183.636 212.23C183.647 212.278 183.646 212.328 183.635 212.375V212.303Z" fill="black"/>
<path opacity="0.15" d="M183.298 209.215C183.303 209.258 183.3 209.301 183.288 209.342C183.276 209.383 183.257 209.422 183.23 209.455C183.203 209.488 183.17 209.516 183.133 209.537C183.096 209.557 183.055 209.57 183.012 209.574C182.928 209.58 182.844 209.554 182.778 209.5C182.712 209.447 182.668 209.371 182.655 209.287C182.65 209.245 182.653 209.202 182.665 209.161C182.677 209.119 182.696 209.081 182.723 209.048C182.75 209.014 182.782 208.987 182.82 208.966C182.857 208.946 182.898 208.933 182.941 208.928C183.025 208.923 183.109 208.949 183.175 209.002C183.241 209.055 183.285 209.131 183.298 209.215Z" fill="black"/>
<path opacity="0.15" d="M182.888 206.288C182.895 206.352 182.883 206.417 182.853 206.474C182.823 206.531 182.776 206.578 182.72 206.608C182.663 206.638 182.598 206.651 182.534 206.644C182.47 206.638 182.41 206.612 182.361 206.57C182.311 206.528 182.276 206.473 182.258 206.411C182.241 206.349 182.242 206.283 182.262 206.222C182.283 206.16 182.321 206.106 182.371 206.067C182.422 206.028 182.484 206.004 182.548 206C182.631 205.995 182.712 206.022 182.775 206.076C182.839 206.129 182.879 206.205 182.888 206.288Z" fill="black"/>
<path opacity="0.15" d="M182.634 203.415C182.641 203.479 182.629 203.544 182.599 203.601C182.569 203.658 182.522 203.705 182.466 203.735C182.409 203.765 182.344 203.778 182.28 203.771C182.216 203.764 182.156 203.739 182.107 203.697C182.058 203.655 182.022 203.6 182.004 203.538C181.987 203.476 181.988 203.41 182.008 203.348C182.029 203.287 182.067 203.233 182.118 203.194C182.169 203.154 182.23 203.131 182.294 203.127C182.377 203.122 182.458 203.149 182.521 203.203C182.585 203.256 182.625 203.332 182.634 203.415Z" fill="black"/>
<path opacity="0.15" d="M176.193 204.041C176.198 204.084 176.195 204.127 176.183 204.168C176.172 204.209 176.152 204.247 176.125 204.281C176.099 204.314 176.066 204.342 176.028 204.362C175.991 204.383 175.95 204.396 175.907 204.4C175.866 204.405 175.824 204.402 175.784 204.39C175.744 204.378 175.707 204.358 175.675 204.331C175.643 204.304 175.617 204.27 175.599 204.233C175.58 204.196 175.57 204.155 175.568 204.113C175.56 204.071 175.561 204.029 175.571 203.988C175.58 203.947 175.598 203.908 175.623 203.874C175.649 203.841 175.68 203.813 175.717 203.792C175.754 203.771 175.794 203.758 175.836 203.754C175.878 203.749 175.921 203.752 175.962 203.764C176.003 203.776 176.041 203.796 176.074 203.823C176.108 203.849 176.135 203.882 176.156 203.92C176.176 203.957 176.189 203.999 176.193 204.041Z" fill="black"/>
<path opacity="0.15" d="M176.518 206.952C176.523 206.994 176.519 207.037 176.507 207.078C176.496 207.119 176.476 207.158 176.449 207.191C176.423 207.225 176.39 207.252 176.352 207.273C176.315 207.293 176.274 207.306 176.232 207.311C176.149 207.316 176.068 207.289 176.004 207.235C175.941 207.182 175.901 207.106 175.892 207.024C175.88 206.976 175.88 206.927 175.89 206.879C175.901 206.831 175.922 206.786 175.952 206.748C175.982 206.71 176.02 206.679 176.064 206.657C176.108 206.636 176.156 206.625 176.205 206.625C176.253 206.625 176.301 206.636 176.345 206.657C176.389 206.679 176.427 206.71 176.458 206.748C176.488 206.786 176.509 206.831 176.519 206.879C176.53 206.927 176.529 206.976 176.518 207.024V206.952Z" fill="black"/>
<path opacity="0.15" d="M176.838 209.858C176.848 209.941 176.826 210.025 176.776 210.092C176.726 210.159 176.652 210.204 176.569 210.217C176.527 210.225 176.483 210.223 176.441 210.212C176.399 210.202 176.359 210.182 176.325 210.155C176.292 210.128 176.264 210.094 176.244 210.055C176.225 210.016 176.214 209.973 176.212 209.93C176.206 209.845 176.232 209.761 176.285 209.695C176.338 209.628 176.414 209.584 176.498 209.571C176.58 209.566 176.662 209.593 176.725 209.646C176.788 209.7 176.829 209.775 176.838 209.858Z" fill="black"/>
<path opacity="0.15" d="M177.18 212.965C177.188 213.006 177.187 213.049 177.177 213.09C177.167 213.131 177.149 213.17 177.124 213.203C177.099 213.237 177.067 213.265 177.031 213.286C176.994 213.307 176.954 213.32 176.912 213.324C176.826 213.324 176.744 213.29 176.684 213.229C176.624 213.169 176.59 213.086 176.59 213.001C176.59 212.915 176.624 212.833 176.684 212.772C176.744 212.712 176.826 212.677 176.912 212.677C176.983 212.686 177.049 212.719 177.098 212.772C177.147 212.824 177.176 212.893 177.18 212.965Z" fill="black"/>
<path opacity="0.15" d="M179.859 214.384L177.141 192.788L178.303 192.752L179.859 214.384Z" fill="black"/>
<path d="M183.332 212.499C181.2 212.087 178.994 212.305 176.983 213.127C176.953 213.154 176.915 213.169 176.876 213.169C176.836 213.169 176.798 213.154 176.768 213.127C176.753 213.112 176.74 213.094 176.732 213.074C176.723 213.054 176.719 213.033 176.719 213.011C176.719 212.989 176.723 212.967 176.732 212.947C176.74 212.927 176.753 212.909 176.768 212.894C178.84 212.039 181.116 211.815 183.314 212.248C183.335 212.252 183.356 212.261 183.374 212.273C183.392 212.285 183.407 212.301 183.419 212.32C183.431 212.338 183.438 212.359 183.442 212.38C183.445 212.402 183.444 212.424 183.439 212.445C183.426 212.462 183.41 212.475 183.391 212.484C183.373 212.493 183.353 212.499 183.332 212.499Z" fill="#263238"/>
<path d="M182.995 209.413H182.888C180.778 208.841 178.532 209.064 176.575 210.041C176.575 210.041 176.414 210.041 176.36 210.041C176.337 210.01 176.324 209.972 176.324 209.934C176.324 209.895 176.337 209.857 176.36 209.826C178.404 208.797 180.756 208.567 182.959 209.18C182.982 209.211 182.995 209.249 182.995 209.287C182.995 209.326 182.982 209.364 182.959 209.395C182.972 209.399 182.984 209.405 182.995 209.413Z" fill="#263238"/>
<path d="M182.667 206.484C180.555 205.918 178.309 206.148 176.354 207.13C176.323 207.154 176.286 207.166 176.247 207.166C176.208 207.166 176.171 207.154 176.14 207.13C176.115 207.097 176.102 207.056 176.102 207.014C176.102 206.972 176.115 206.931 176.14 206.897C178.177 205.865 180.526 205.641 182.721 206.269C182.747 206.298 182.762 206.337 182.762 206.376C182.762 206.416 182.747 206.455 182.721 206.484C182.721 206.484 182.721 206.484 182.667 206.484Z" fill="#263238"/>
<path d="M182.349 203.613C180.239 203.041 177.993 203.265 176.036 204.242C176.022 204.257 176.006 204.269 175.987 204.278C175.969 204.286 175.949 204.29 175.928 204.29C175.908 204.29 175.888 204.286 175.869 204.278C175.851 204.269 175.834 204.257 175.821 204.242C175.798 204.211 175.785 204.173 175.785 204.134C175.785 204.095 175.798 204.057 175.821 204.026C177.859 202.999 180.205 202.768 182.402 203.38C182.423 203.388 182.441 203.4 182.457 203.415C182.472 203.43 182.485 203.448 182.493 203.469C182.501 203.489 182.505 203.51 182.505 203.532C182.505 203.554 182.5 203.575 182.492 203.595C182.492 203.595 182.402 203.595 182.349 203.613Z" fill="#263238"/>
<path d="M153.591 202.553L149.746 201.206L150.909 198.513L153.323 200.686L153.591 202.553Z" fill="black"/>
<path d="M157.33 195.373C157.33 195.373 157.563 197.922 157.616 198.712C157.67 199.502 154.415 202.123 153.592 202.554L153.324 200.758C152.605 201.711 152.004 202.748 151.536 203.846C150.837 205.665 149.792 207.329 148.459 208.747C145.366 211.107 141.613 212.432 137.729 212.535C135.028 212.931 132.274 212.379 129.931 210.973C129.416 210.667 129.009 210.206 128.768 209.655C128.528 209.104 128.465 208.492 128.59 207.903C128.787 206.737 157.33 195.373 157.33 195.373Z" fill="#263238"/>
<path d="M145.938 187.025L145.83 185.552C145.061 185.552 145.043 187.689 144.042 189.61C142.504 192.461 140.618 195.109 138.426 197.491C134.313 201.566 130.629 204.169 128.804 206C126.354 208.459 130.897 212.104 137.747 211.493C141.109 211.206 147.046 209.267 148.674 207.167C150.301 205.067 151.231 201.781 152.537 200.327C153.842 198.873 156.686 197.203 157.473 195.372C157.765 193.617 157.692 191.82 157.258 190.094C156.954 188.299 156.811 185.535 155.828 185.804V186.719C155.436 187.464 154.867 188.099 154.171 188.569C153.475 189.039 152.674 189.329 151.839 189.412C150.301 189.699 146.259 189.879 145.938 187.025Z" fill="#37474F"/>
<path opacity="0.15" d="M149.48 189.556C148.833 189.605 148.186 189.478 147.606 189.187C147.027 188.896 146.537 188.453 146.189 187.904C146.284 188.411 146.263 188.934 146.126 189.432C145.99 189.929 145.742 190.389 145.402 190.776C144.239 192.266 136.871 202.804 136.871 202.804C136.871 202.804 143.757 194.098 145.08 192.446C147.029 190.022 147.673 189.717 149.515 189.592L149.48 189.556Z" fill="black"/>
<path opacity="0.15" d="M147.868 192.338C147.872 192.393 147.888 192.447 147.914 192.496C147.94 192.545 147.976 192.588 148.02 192.622C148.064 192.656 148.115 192.68 148.169 192.693C148.222 192.706 148.278 192.707 148.333 192.697C148.387 192.69 148.439 192.673 148.487 192.646C148.534 192.619 148.576 192.582 148.609 192.539C148.642 192.495 148.667 192.446 148.681 192.393C148.695 192.34 148.698 192.284 148.69 192.23C148.684 192.173 148.666 192.118 148.638 192.069C148.61 192.019 148.573 191.975 148.528 191.94C148.483 191.905 148.431 191.879 148.376 191.864C148.321 191.849 148.264 191.846 148.208 191.853C148.1 191.875 148.005 191.937 147.941 192.028C147.878 192.118 147.852 192.229 147.868 192.338Z" fill="black"/>
<path opacity="0.15" d="M145.918 194.673C145.925 194.729 145.942 194.784 145.97 194.834C145.998 194.884 146.036 194.927 146.081 194.963C146.126 194.998 146.177 195.023 146.232 195.038C146.287 195.053 146.344 195.057 146.401 195.05C146.509 195.028 146.604 194.965 146.667 194.875C146.73 194.785 146.757 194.674 146.741 194.565C146.737 194.509 146.721 194.455 146.695 194.406C146.668 194.358 146.632 194.315 146.588 194.281C146.544 194.247 146.494 194.223 146.44 194.21C146.386 194.197 146.33 194.195 146.276 194.206C146.221 194.212 146.169 194.23 146.122 194.257C146.074 194.284 146.033 194.32 145.999 194.364C145.966 194.407 145.942 194.457 145.928 194.51C145.914 194.563 145.91 194.618 145.918 194.673Z" fill="black"/>
<path opacity="0.15" d="M143.985 197.059C143.991 197.113 144.008 197.166 144.036 197.213C144.063 197.261 144.099 197.303 144.142 197.336C144.185 197.369 144.235 197.394 144.288 197.408C144.34 197.422 144.395 197.425 144.45 197.418C144.56 197.4 144.66 197.339 144.727 197.249C144.794 197.158 144.823 197.045 144.807 196.933C144.801 196.879 144.783 196.826 144.756 196.778C144.729 196.731 144.693 196.689 144.65 196.656C144.606 196.622 144.557 196.598 144.504 196.584C144.451 196.57 144.396 196.566 144.342 196.574C144.231 196.592 144.132 196.652 144.065 196.743C143.998 196.834 143.969 196.947 143.985 197.059Z" fill="black"/>
<path opacity="0.15" d="M142.056 199.358C142.063 199.412 142.08 199.465 142.107 199.512C142.134 199.56 142.171 199.602 142.214 199.635C142.257 199.669 142.307 199.693 142.36 199.707C142.412 199.721 142.467 199.724 142.521 199.717C142.607 199.709 142.688 199.675 142.755 199.619C142.821 199.564 142.869 199.49 142.893 199.407C142.916 199.324 142.915 199.235 142.888 199.153C142.861 199.071 142.81 198.999 142.742 198.947C142.673 198.894 142.591 198.863 142.505 198.858C142.419 198.853 142.334 198.874 142.26 198.918C142.186 198.963 142.127 199.028 142.091 199.107C142.054 199.185 142.043 199.273 142.056 199.358Z" fill="black"/>
<path opacity="0.15" d="M140.106 201.692C140.123 201.805 140.183 201.906 140.273 201.977C140.362 202.047 140.475 202.08 140.589 202.069C140.702 202.052 140.805 201.991 140.874 201.899C140.942 201.806 140.972 201.69 140.955 201.575C140.939 201.461 140.877 201.358 140.785 201.289C140.693 201.22 140.577 201.191 140.463 201.207C140.352 201.225 140.253 201.286 140.186 201.376C140.119 201.467 140.09 201.58 140.106 201.692Z" fill="black"/>
<path d="M148.292 192.447C148.306 192.454 148.321 192.459 148.337 192.459C148.352 192.459 148.368 192.454 148.381 192.447C148.397 192.432 148.41 192.413 148.418 192.393C148.427 192.373 148.431 192.352 148.431 192.33C148.431 192.308 148.427 192.287 148.418 192.266C148.41 192.246 148.397 192.228 148.381 192.213C147.089 191.017 145.382 190.373 143.624 190.418C143.602 190.417 143.58 190.422 143.56 190.431C143.54 190.44 143.522 190.454 143.508 190.472C143.494 190.489 143.484 190.51 143.48 190.532C143.475 190.553 143.476 190.576 143.481 190.598C143.486 190.642 143.506 190.683 143.539 190.713C143.573 190.743 143.615 190.759 143.66 190.759C145.314 190.718 146.921 191.315 148.149 192.429C148.169 192.444 148.193 192.454 148.218 192.457C148.243 192.46 148.269 192.457 148.292 192.447Z" fill="#263238"/>
<path d="M146.346 194.78C146.363 194.788 146.381 194.792 146.4 194.792C146.418 194.792 146.437 194.788 146.453 194.78C146.469 194.765 146.482 194.746 146.49 194.726C146.499 194.706 146.503 194.685 146.503 194.663C146.503 194.641 146.499 194.62 146.49 194.6C146.482 194.579 146.469 194.561 146.453 194.546C145.166 193.341 143.456 192.696 141.696 192.751C141.652 192.756 141.611 192.776 141.581 192.81C141.551 192.843 141.535 192.886 141.535 192.931C141.543 192.974 141.565 193.013 141.597 193.042C141.629 193.071 141.671 193.089 141.714 193.092C143.373 193.052 144.986 193.649 146.221 194.762C146.259 194.783 146.304 194.789 146.346 194.78Z" fill="#263238"/>
<path d="M144.416 197.058C144.451 197.07 144.488 197.07 144.523 197.058C144.552 197.023 144.568 196.978 144.568 196.932C144.568 196.887 144.552 196.842 144.523 196.807C143.236 195.613 141.536 194.969 139.784 195.012C139.741 195.024 139.704 195.05 139.678 195.085C139.652 195.121 139.639 195.165 139.641 195.209C139.643 195.23 139.649 195.251 139.66 195.27C139.67 195.288 139.684 195.305 139.7 195.318C139.717 195.332 139.736 195.342 139.757 195.347C139.777 195.353 139.798 195.355 139.82 195.353C141.477 195.321 143.086 195.917 144.326 197.022C144.352 197.043 144.383 197.056 144.416 197.058Z" fill="#263238"/>
<path d="M142.485 199.467C142.52 199.479 142.558 199.479 142.592 199.467C142.608 199.452 142.621 199.434 142.629 199.414C142.638 199.394 142.642 199.372 142.642 199.35C142.642 199.329 142.638 199.307 142.629 199.287C142.621 199.267 142.608 199.249 142.592 199.234C141.305 198.029 139.595 197.383 137.835 197.438C137.813 197.438 137.791 197.442 137.771 197.452C137.751 197.461 137.733 197.475 137.719 197.492C137.705 197.51 137.695 197.53 137.691 197.552C137.686 197.574 137.687 197.596 137.692 197.618C137.697 197.662 137.717 197.704 137.75 197.733C137.784 197.763 137.827 197.78 137.871 197.78C139.525 197.742 141.13 198.339 142.36 199.449C142.378 199.462 142.399 199.47 142.421 199.473C142.442 199.476 142.464 199.474 142.485 199.467Z" fill="#263238"/>
<path d="M140.537 201.798C140.554 201.808 140.572 201.813 140.591 201.813C140.61 201.813 140.628 201.808 140.645 201.798C140.66 201.783 140.673 201.765 140.681 201.745C140.69 201.725 140.694 201.703 140.694 201.682C140.694 201.66 140.69 201.638 140.681 201.618C140.673 201.598 140.66 201.58 140.645 201.565C139.352 200.368 137.646 199.724 135.888 199.77C135.845 199.777 135.806 199.799 135.777 199.832C135.747 199.864 135.73 199.906 135.727 199.949C135.729 199.973 135.736 199.996 135.747 200.017C135.758 200.038 135.773 200.056 135.791 200.071C135.81 200.086 135.831 200.097 135.853 200.104C135.876 200.111 135.9 200.113 135.923 200.111C137.577 200.073 139.182 200.67 140.412 201.78C140.43 201.794 140.45 201.803 140.472 201.806C140.494 201.809 140.517 201.807 140.537 201.798Z" fill="#263238"/>
<path d="M181.777 90.9451C183.565 117.766 184.423 147.656 184.423 147.656C184.981 153.065 185.262 158.5 185.264 163.939C185.264 173.705 184.745 197.581 184.745 197.581C182.927 198.827 180.82 199.581 178.627 199.769C176.433 199.958 174.229 199.575 172.226 198.658C172.226 198.658 167.398 172.25 165.216 158.086C163.427 146.758 161.12 132.217 161.12 132.217L159.135 145.753C159.837 150.994 160.076 156.286 159.85 161.569C159.475 167.26 157.472 188.928 157.472 188.928C157.472 188.928 149.621 195.516 143.486 189.197C143.486 189.197 140.571 152.97 140.178 146.112C139.409 132.666 139.874 108.413 140.178 91.2862L181.777 90.9451Z" fill="#455A64"/>
<path d="M161.082 132.217L157.702 108.969C157.702 108.969 151.335 108.233 147.973 105.289C148.927 106.69 150.149 107.887 151.567 108.811C152.985 109.736 154.572 110.369 156.235 110.674L159.436 131.768L159.097 145.807L161.082 132.217Z" fill="#263238"/>
<path d="M146.348 40.1384C141.377 42.1491 140.876 44.9137 138.801 57.3725C136.78 69.5441 136.333 72.8114 136.333 72.8114C136.333 72.8114 115.319 79.2742 112.762 79.7589L114.801 89.2556L128.464 87.0834C138.676 85.4677 143.505 84.3726 145.901 81.8234C148.298 79.2742 151.267 54.2668 151.267 54.2668L146.348 40.1384Z" fill="#FFBDA7"/>
<path d="M146.223 39.6541C142.646 41.0902 141.234 41.9878 139.713 48.307C138.444 53.567 134.348 72.3629 134.348 72.3629L114.926 78.9155C114.926 78.9155 116.607 79.7592 116.911 83.5651C117.125 85.3626 117.034 87.1836 116.643 88.9507C116.643 88.9507 131.97 86.9939 138.193 85.6834C144.417 84.3729 146.313 83.5292 147.261 80.4773C147.743 78.9334 150.641 63.8536 151.159 60.7299C151.678 57.6062 151.982 53.6747 151.982 53.6747L146.223 39.6541Z" fill="#455A64"/>
<path d="M167.848 36.1382C170.423 36.6229 173.535 37.2513 173.535 37.2513C180.081 40.0518 181.136 40.4647 182.477 41.0392C184.595 47.8379 185.049 55.0489 183.801 62.0612C182.772 67.5017 182.133 73.0091 181.887 78.5413C181.887 86.0273 181.994 92.0054 181.994 92.0054C181.994 92.0054 174.841 98.9349 156.634 97.8578C142.327 96.9961 140.109 92.0054 140.109 92.0054C140.109 92.0054 140.396 72.6709 140.592 62.115C140.861 48.238 143.15 42.1342 146.19 39.6568L154.739 35.4919L167.848 36.1382Z" fill="#37474F"/>
<path d="M156.056 0.699745C156.843 0.57408 157.629 0.502272 158.434 0.448416C160.719 0.238402 163.021 0.564119 165.159 1.39988C166.222 1.8302 167.177 2.49107 167.956 3.33522C168.736 4.17936 169.319 5.18591 169.666 6.28287C170.486 6.49903 171.246 6.89882 171.891 7.45225C172.535 8.00567 173.046 8.69837 173.386 9.47836C174.354 11.7395 174.64 14.2364 174.208 16.6592C173.531 19.4371 172.315 22.054 170.631 24.3607C170.327 24.8454 166.446 30.3029 166.84 30.6081L159.042 24.5941L152.586 19.6393L149.868 17.5389C149.387 17.1225 148.797 16.8544 148.169 16.7669C147.335 16.6051 146.576 16.1768 146.005 15.5462C145.585 15.0932 145.31 14.5249 145.215 13.914C145.119 13.3032 145.207 12.6775 145.468 12.1173C145.042 12.1235 144.628 11.9769 144.3 11.7037C143.972 11.4305 143.752 11.0488 143.68 10.6273C143.973 10.7601 144.305 10.7823 144.613 10.69C144.922 10.5978 145.187 10.3971 145.361 10.1246C145.682 9.56677 145.911 8.96059 146.04 8.32942C146.85 5.80689 148.608 3.70086 150.941 2.45906C152.536 1.59013 154.265 0.995472 156.056 0.699745Z" fill="#263238"/>
<path d="M147.113 27.9504C147.467 29.053 148.081 30.0533 148.903 30.8661C149.725 31.6788 150.731 32.2799 151.835 32.618C152.829 32.8972 153.862 33.0124 154.893 32.9591V35.5262C154.101 37.2998 153.967 39.2995 154.517 41.1632C154.705 42.4026 155.06 43.6105 155.572 44.7536C157.021 43.8022 158.005 41.8274 159.006 41.4145C162.177 40.1724 165.125 38.4201 167.734 36.2264L167.537 25.9757C168.032 26.4619 168.686 26.7503 169.378 26.7866C170.069 26.823 170.75 26.6048 171.293 26.1731C172.296 25.5592 173.036 24.5917 173.367 23.4596C173.697 22.3274 173.596 21.1122 173.081 20.0514C171.704 17.7177 169.129 17.574 168.109 19.1538C167.555 19.9976 167.573 21.2183 166.697 21.1106C164.693 20.8593 164.998 17.1791 165.23 15.5454C165.274 15.3991 165.274 15.2429 165.23 15.0966C165.14 14.9579 165.008 14.8511 164.854 14.7915C163.742 14.0968 162.922 13.0176 162.547 11.7575C162.175 10.5125 162.006 9.21511 162.047 7.91577C160.358 8.96212 158.558 9.81709 156.681 10.465C154.608 11.0563 152.481 11.4412 150.332 11.6139C149.599 11.6139 148.544 11.6139 148.061 12.1345C147.464 12.793 147.105 13.634 147.042 14.5222C146.791 16.3174 147.042 18.1126 146.791 19.9078C146.369 22.5837 146.478 25.3172 147.113 27.9504Z" fill="#FFBDA7"/>
<path d="M150.998 14.2512L148.566 15.1309C148.5 14.9601 148.468 14.7778 148.473 14.5947C148.478 14.4116 148.519 14.2313 148.594 14.0643C148.669 13.8972 148.776 13.7468 148.909 13.6217C149.043 13.4966 149.199 13.3994 149.37 13.3356C149.537 13.2813 149.713 13.2621 149.888 13.2793C150.062 13.2966 150.231 13.3499 150.384 13.4359C150.537 13.5219 150.67 13.6387 150.776 13.779C150.882 13.9194 150.957 14.0801 150.998 14.2512Z" fill="#263238"/>
<path d="M158.773 14.1097L161.116 15.2586C161.261 14.9358 161.276 14.5697 161.16 14.2358C161.043 13.9018 160.804 13.6254 160.49 13.4634C160.336 13.3889 160.168 13.3466 159.997 13.3389C159.826 13.3312 159.655 13.3584 159.495 13.4188C159.334 13.4792 159.188 13.5715 159.064 13.6903C158.94 13.809 158.841 13.9517 158.773 14.1097Z" fill="#263238"/>
<path d="M154.875 32.9583C157.45 32.9583 162.78 31.2887 164.193 29.9064C165.205 28.6743 165.921 27.2245 166.285 25.6697C166.148 27.4873 165.662 29.2612 164.854 30.8938C163.746 32.4556 161.027 33.0839 159.489 33.443C157.987 33.7025 156.47 33.8644 154.947 33.9277L154.875 32.9583Z" fill="#F0997A"/>
<path d="M144.735 15.8841C144.768 16.2706 144.925 16.6359 145.182 16.9254C145.266 17.0379 145.327 17.166 145.361 17.3024C145.476 18.2633 145.673 19.2123 145.951 20.1388C146.186 20.7625 146.617 21.2926 147.178 21.6489C147.74 22.0052 148.401 22.1683 149.063 22.1136C149.43 22.1178 149.796 22.0817 150.154 22.0058C150.797 21.8854 151.385 21.565 151.835 21.0903C152.143 20.7686 152.397 20.3987 152.587 19.9952C153.087 18.9899 153.034 17.6076 153.785 17.428H153.982C155.019 17.428 154.84 18.954 155.376 20.0131C155.685 20.7149 156.209 21.2992 156.872 21.6804C157.535 22.0616 158.302 22.2197 159.061 22.1315C159.763 22.1917 160.466 22.0348 161.077 21.6817C161.688 21.3287 162.176 20.7966 162.477 20.1568C162.794 19.2333 163.034 18.2844 163.192 17.3203C163.228 17.1703 163.295 17.0296 163.389 16.9074C163.662 16.6252 163.848 16.2699 163.925 15.8841C163.95 15.6931 163.906 15.4995 163.801 15.3382C163.696 15.1769 163.537 15.0585 163.353 15.0045H162.798C160.982 14.7832 159.144 14.8377 157.344 15.1661C156.267 15.622 155.146 15.965 153.999 16.1893C153.105 16.1893 152.551 15.6508 150.923 15.1661C149.244 14.8373 147.523 14.7827 145.826 15.0045H145.308C145.132 15.0722 144.983 15.1936 144.88 15.3515C144.777 15.5094 144.727 15.6958 144.735 15.8841ZM156.074 16.7279C156.206 16.5573 156.378 16.4217 156.575 16.333C157.389 15.918 158.276 15.6679 159.186 15.5969C160.234 15.392 161.321 15.577 162.244 16.1175C162.62 16.4407 162.387 17.9127 162.244 18.6667C162.134 19.2365 161.902 19.7756 161.564 20.2465C161.288 20.6066 160.929 20.8943 160.518 21.085C160.107 21.2756 159.656 21.3637 159.204 21.3416C158.76 21.3821 158.314 21.326 157.894 21.1773C157.474 21.0286 157.091 20.7907 156.771 20.4799C156.39 20.0619 156.13 19.5464 156.02 18.9899C155.77 18.2547 155.782 17.4547 156.056 16.7279H156.074ZM146.309 16.1175C146.429 16.0078 146.568 15.9225 146.721 15.8662C147.559 15.5504 148.466 15.4636 149.35 15.6149C150.348 15.6735 151.299 16.0652 152.05 16.7279C152.214 17.3122 152.252 17.9248 152.163 18.5251C152.074 19.1255 151.858 19.7 151.531 20.2106C151.241 20.5987 150.858 20.9062 150.417 21.1041C149.975 21.302 149.491 21.3837 149.01 21.3416C148.583 21.3477 148.161 21.2556 147.776 21.0723C147.353 20.8178 146.996 20.4677 146.732 20.0501C146.468 19.6325 146.305 19.1588 146.256 18.6667C146.112 17.9307 145.934 16.4407 146.309 16.1175Z" fill="#37474F"/>
<path d="M163.425 15.115L169.381 18.113C168.945 18.2197 168.552 18.4577 168.254 18.7952L163.336 16.3357L163.425 15.115Z" fill="#37474F"/>
<path d="M154.948 18.614L154.143 23.5868L150.566 22.0249L150.763 21.7915L152.838 19.3321L154.358 17.5369C154.684 17.8075 154.895 18.1927 154.948 18.614Z" fill="#F0997A"/>
<path d="M157.973 24.8259L154.164 26.0467C154.234 26.3028 154.354 26.5422 154.518 26.7505C154.682 26.9589 154.886 27.1319 155.118 27.2593C155.35 27.3866 155.605 27.4657 155.869 27.4918C156.132 27.5179 156.398 27.4904 156.65 27.411C157.163 27.2384 157.588 26.8715 157.835 26.3886C158.083 25.9057 158.132 25.345 157.973 24.8259Z" fill="#B16668"/>
<path d="M156.645 27.4113C156.568 27.4196 156.49 27.4196 156.413 27.4113C156.373 26.9377 156.522 26.4676 156.827 26.1041C157.132 25.7407 157.568 25.5135 158.04 25.4724C158.037 25.9009 157.901 26.3178 157.651 26.6652C157.401 27.0127 157.049 27.2734 156.645 27.4113Z" fill="#F28F8F"/>
<path d="M148.599 17.719C148.367 18.2755 148.76 18.491 149.297 18.7064C149.834 18.9218 150.334 19.0834 150.567 18.5089C150.618 18.3793 150.644 18.2406 150.642 18.101C150.641 17.9614 150.612 17.8234 150.557 17.6951C150.502 17.5667 150.423 17.4504 150.323 17.3529C150.223 17.2554 150.106 17.1785 149.977 17.1266C149.847 17.0747 149.709 17.0489 149.57 17.0506C149.431 17.0523 149.294 17.0815 149.166 17.1365C149.038 17.1915 148.922 17.2713 148.825 17.3712C148.728 17.4712 148.651 17.5894 148.599 17.719Z" fill="#263238"/>
<path d="M150.517 17.3201C150.276 17.1655 150.009 17.056 149.73 16.997C149.465 16.9356 149.19 16.9356 148.925 16.997C148.629 17.0059 148.337 17.073 148.066 17.1944C148.322 17.1738 148.58 17.1738 148.835 17.1944C149.146 17.2044 149.453 17.2588 149.748 17.356C150.109 17.4513 150.453 17.6027 150.767 17.8048L151.107 18.0023C150.965 17.7322 150.763 17.4987 150.517 17.3201Z" fill="#263238"/>
<path d="M159.995 18.1322C160.156 18.7246 159.745 18.8862 159.191 19.0477C158.636 19.2093 158.118 19.2991 157.939 18.7246C157.887 18.5855 157.865 18.4371 157.873 18.2889C157.881 18.1407 157.919 17.9957 157.986 17.8632C158.053 17.7306 158.146 17.6133 158.26 17.5187C158.374 17.424 158.506 17.354 158.648 17.313C158.79 17.2721 158.939 17.2611 159.086 17.2807C159.233 17.3003 159.374 17.3502 159.5 17.4271C159.627 17.504 159.736 17.6063 159.821 17.7277C159.906 17.849 159.966 17.9867 159.995 18.1322Z" fill="#263238"/>
<path d="M158.112 17.5387C158.373 17.4175 158.65 17.3329 158.935 17.2873C159.207 17.2424 159.485 17.2424 159.757 17.2873C160.045 17.3371 160.323 17.4342 160.58 17.5746C160.338 17.5217 160.093 17.4857 159.847 17.4668C159.537 17.4398 159.226 17.4398 158.917 17.4668C158.547 17.5388 158.187 17.6532 157.844 17.8079L157.504 17.9875C157.679 17.8035 157.885 17.6517 158.112 17.5387Z" fill="#263238"/>
<path d="M153.733 45.4544C152.806 43.955 152.101 42.3282 151.641 40.6252L153.805 38.1658L154.735 43.8746L153.733 45.4544Z" fill="#FA6400"/>
<g opacity="0.15">
<path d="M153.733 45.4563C152.806 43.9569 152.101 42.3302 151.641 40.6272L153.805 38.1677L154.735 43.8765L153.733 45.4563Z" fill="black"/>
</g>
<path d="M156.613 43.8753L160.351 41.0388L163.678 43.0674L157.883 46.3886L156.613 43.8753Z" fill="#FA6400"/>
<g opacity="0.15">
<path d="M156.613 43.8733L160.351 41.0369L163.678 43.0655L157.883 46.3866L156.613 43.8733Z" fill="black"/>
</g>
<path d="M158.06 78.9716C158.686 71.4676 156.486 51.0739 156.558 48.4529H154.573C153.374 51.7022 150.567 72.8319 150.638 77.9663C150.638 80.4437 153.392 84.7701 154.215 84.8958C155.038 85.0215 157.935 80.5693 158.06 78.9716Z" fill="#FA6400"/>
<path opacity="0.15" d="M154.43 48.7771C154.43 48.6334 154.537 48.436 154.573 48.3103H156.558C156.558 48.5437 156.558 48.8309 156.558 49.1541C155.827 49.2517 155.083 49.12 154.43 48.7771Z" fill="black"/>
<path d="M156.614 43.858C155.99 43.7918 155.36 43.7918 154.736 43.858C154.295 44.308 153.954 44.8463 153.734 45.4378C153.845 46.4523 154.155 47.4348 154.646 48.3281C154.951 48.5096 155.293 48.62 155.645 48.6511C155.998 48.6822 156.354 48.6331 156.685 48.5076C157.243 47.8974 157.653 47.1664 157.884 46.3713C157.802 45.3997 157.346 44.4983 156.614 43.858Z" fill="#FA6400"/>
<path d="M156.293 43.8391H156.615C157.291 43.0702 158.06 42.3888 158.904 41.8104C159.441 41.5412 161.64 45.4009 162.052 46.4242C162.463 47.4474 162.392 47.4295 163.84 46.5498C166.274 45.0269 168.577 43.3035 170.726 41.3976C172.108 40.3608 173.113 38.8977 173.587 37.2326C173.587 37.2326 168.562 32.7087 167.667 32.8344V35.0066C167.489 36.3889 159.691 39.1715 158.94 39.8716C157.947 41.1164 157.062 42.4437 156.293 43.8391Z" fill="#455A64"/>
<path d="M150.82 45.2215C151.016 45.7959 152.447 40.9309 153.324 41.0386C153.753 41.0386 154.289 42.5646 155.112 43.8392H155.255C154.894 42.5042 154.702 41.1291 154.683 39.7461C154.667 38.4033 154.727 37.0608 154.862 35.7248V34.4861C153.98 34.8037 153.214 35.3789 152.662 36.1377C151.758 37.1048 151.139 38.304 150.873 39.6025C150.54 41.4591 150.522 43.3588 150.82 45.2215Z" fill="#455A64"/>
<path d="M196.996 71.7734C197.713 75.0606 197.942 78.4362 197.675 81.7907C197.373 84.5354 196.895 87.2578 196.245 89.941C195.315 94.9138 192.864 103.998 192.936 105.308C193.043 106.568 193.043 107.836 192.936 109.096C192.831 110.59 192.505 112.06 191.97 113.458C191.613 114.446 191.38 115.505 190.969 116.438C190.585 117.077 190.142 117.678 189.645 118.234C189.162 118.898 189.001 119.742 188.393 120.316C187.461 121.11 186.387 121.719 185.228 122.111C184.799 122.758 184.083 124.14 183.6 124.75C182.366 126.312 182.044 123.799 182.062 122.955C182.124 122.031 182.286 121.116 182.545 120.226C183.147 117.987 183.625 115.715 183.976 113.422C183.976 113.028 184.495 111.34 183.833 111.358C183.726 111.372 183.624 111.408 183.531 111.464C183.439 111.519 183.359 111.593 183.296 111.681C182.849 112.22 182.545 112.866 182.152 113.476C181.835 113.918 181.482 114.332 181.097 114.715C180.806 115.07 180.447 115.363 180.041 115.577C179.612 115.774 178.038 115.918 177.949 115.182C177.951 115.062 177.981 114.945 178.038 114.841C178.342 114.069 178.718 113.315 179.04 112.543C179.377 111.783 179.669 111.003 179.916 110.209C180.394 107.836 181.317 105.576 182.635 103.549C185.246 99.8147 185.46 77.949 185.46 77.949L181.633 62.9409C180.022 58.9538 179.249 54.6756 179.362 50.3744C179.469 48.7706 179.925 47.2097 180.697 45.8016C181.47 44.3935 182.54 43.1724 183.833 42.2241C189.395 44.3604 190.718 45.0965 192.239 50.1769C193.759 55.2574 196.441 68.1112 196.996 71.7734Z" fill="#FFBDA7"/>
<path d="M197.766 75.651C197.587 74.3584 196.639 67.5905 194.511 57.6988C192.973 50.6436 192.418 47.5738 190.451 45.4375C188.931 43.75 185.086 42.1881 182.51 41.0212C180.192 43.9859 178.932 47.6464 178.934 51.4156C179.032 55.9078 179.742 60.3653 181.044 64.6643L185.139 78.4156L183.959 98.4323C186.588 97.4629 192.079 99.9762 193.491 102.561C193.491 102.561 196.603 90.3718 197.551 85.5247C198.169 82.2683 198.241 78.9313 197.766 75.651Z" fill="#455A64"/>
</g>
<defs>
<filter id="filter0_d_1194_18557" x="0.9" y="148.29" width="224.2" height="140.2" filterUnits="userSpaceOnUse" color-interpolation-filters="sRGB">
<feFlood flood-opacity="0" result="BackgroundImageFix"/>
<feColorMatrix in="SourceAlpha" type="matrix" values="0 0 0 0 0 0 0 0 0 0 0 0 0 0 0 0 0 0 127 0" result="hardAlpha"/>
<feOffset dx="-1" dy="6"/>
<feGaussianBlur stdDeviation="10.55"/>
<feComposite in2="hardAlpha" operator="out"/>
<feColorMatrix type="matrix" values="0 0 0 0 0 0 0 0 0 0 0 0 0 0 0 0 0 0 0.4 0"/>
<feBlend mode="normal" in2="BackgroundImageFix" result="effect1_dropShadow_1194_18557"/>
<feBlend mode="normal" in="SourceGraphic" in2="effect1_dropShadow_1194_18557" result="shape"/>
</filter>
<filter id="filter1_d_1194_18557" x="41" y="0.386475" width="161.075" height="233.08" filterUnits="userSpaceOnUse" color-interpolation-filters="sRGB">
<feFlood flood-opacity="0" result="BackgroundImageFix"/>
<feColorMatrix in="SourceAlpha" type="matrix" values="0 0 0 0 0 0 0 0 0 0 0 0 0 0 0 0 0 0 127 0" result="hardAlpha"/>
<feOffset dy="4"/>
<feGaussianBlur stdDeviation="2"/>
<feComposite in2="hardAlpha" operator="out"/>
<feColorMatrix type="matrix" values="0 0 0 0 0 0 0 0 0 0 0 0 0 0 0 0 0 0 0.25 0"/>
<feBlend mode="normal" in2="BackgroundImageFix" result="effect1_dropShadow_1194_18557"/>
<feBlend mode="normal" in="SourceGraphic" in2="effect1_dropShadow_1194_18557" result="shape"/>
</filter>
</defs>
</svg>
