<svg width="425" height="1174" viewBox="0 0 425 1174" fill="none" xmlns="http://www.w3.org/2000/svg">
<g filter="url(#filter0_d_1194_18691)">
<path d="M408.094 1158.5C399.86 1155.57 391.128 1152.39 382.95 1149.26C380.56 1148.35 381.736 1148.99 380.164 1148.39C377.133 1147.24 374.304 1146 371.189 1144.77C370.155 1144.37 371.334 1145.14 370.251 1144.7C364.325 1142.34 358.419 1139.71 352.815 1137.26C323.43 1124.37 295.753 1110.21 267.725 1094.2C258.465 1088.91 247.154 1082.39 238.006 1076.55C236.925 1075.86 237.69 1076.07 237.493 1075.93C234.397 1073.66 235.238 1074.71 233.083 1073.42C224.411 1068.22 215.32 1062.29 207.472 1056.87C204.129 1054.56 207.75 1056.49 204.222 1054.38C203.977 1054.24 204.7 1055.01 203.762 1054.4C201.636 1053.02 197.678 1050.24 196.039 1049.11C192.885 1046.95 192.334 1046.56 189.479 1044.54C185.553 1041.77 180.81 1038.49 176.62 1035.35C175.726 1034.68 177.061 1035.36 175.649 1034.27C174.236 1033.18 170.419 1030.37 169.101 1029.45C167.784 1028.53 168.217 1029.09 167.963 1028.96C165.879 1027.85 161.756 1024.08 161.233 1023.66C151.343 1015.8 142.574 1009.18 133.206 1001.43C126.182 995.609 118.93 989.282 112.372 983.52C104.551 976.645 97.9841 970.835 90.7273 963.981C89.9593 963.254 91.0548 963.898 90.1175 963.01C80.1635 953.572 70.3173 943.866 60.7737 934.215C59.8099 933.24 60.8548 934.686 59.8812 933.722C53.9231 927.848 44.4488 918.276 41.9546 913.844C38.1485 909.676 33.5785 904.531 30.0989 900.809C27.8562 898.406 29.7227 901.009 27.1912 897.861C26.6211 897.149 27.5684 897.899 26.7003 896.844C23.0482 892.403 18.9563 887.582 15.4602 883.063C14.7595 882.155 15.1217 882.265 14.9475 881.988C13.4738 879.673 10.2426 876.426 9.59879 875.665C4.69667 869.888 1.40535 865.409 -2.85382 859.721C-3.84086 858.399 -2.44744 859.793 -3.38815 858.514C-8.28751 851.856 -13.2395 844.992 -17.8911 838.493C-18.9278 837.044 -18.1962 838.53 -18.7018 837.844C-20.9251 834.814 -21.0153 833.866 -23.1175 830.93C-23.5596 830.31 -23.4926 830.782 -23.5892 830.679C-25.1012 829.075 -25.7258 827.215 -26.0257 826.743C-29.802 820.759 -32.7397 817.178 -36.3018 811.366C-36.7241 810.673 -35.5312 812.084 -36.7307 810.145C-44.7019 797.255 -52.9612 783.13 -60.255 769.898C-61.3841 767.848 -60.7731 769.415 -60.8639 769.297C-62.3287 767.356 -62.5996 765.738 -62.9372 765.052C-65.6128 759.647 -68.5425 754.784 -69.8241 750.815C-81.477 727.699 -91.0607 704.197 -100.121 680.438C-100.235 680.137 -100.278 680.765 -100.505 680.164C-103.215 672.911 -102.345 674.177 -103.546 669.16C-103.849 667.898 -105.635 664.33 -105.782 664.008C-106.326 662.844 -106.271 664.218 -106.432 663.821C-107.75 660.528 -106.402 660.702 -107.838 656.144C-107.885 656.002 -107.914 656.67 -108.056 656.293C-108.497 655.124 -108.778 653.914 -109.212 652.768C-110.199 650.159 -111.089 649.312 -111.942 645.186C-112.045 644.664 -111.153 645.248 -112.348 641.229C-112.833 639.633 -114.814 632.477 -115.389 630.465C-115.973 628.463 -115.821 629.904 -115.869 629.763C-117.601 624.399 -117.171 626.492 -118.31 623.865C-119.44 621.23 -118.225 621.73 -118.395 620.583C-118.567 619.434 -119.801 615.46 -120.122 614.483C-120.445 613.508 -120.285 614.783 -120.546 613.909C-122.254 608.107 -120.651 611.21 -120.945 609.234C-121.618 604.6 -123.2 601.066 -124.142 597.018C-124.398 595.909 -124.032 596.781 -124.225 595.785C-124.989 591.841 -125.712 589.516 -126.371 584.959C-126.48 584.213 -126.717 580.472 -127.487 578.156C-127.598 577.827 -127.615 578.82 -127.967 577.124C-128.496 574.592 -129.338 569.99 -129.728 567.214C-130.017 565.166 -129.318 567.454 -129.835 564.9C-130.063 563.764 -129.907 565.913 -130.319 563.775C-130.735 561.65 -131.565 556.155 -131.857 554.051C-132.154 551.953 -131.747 553.067 -131.756 552.895C-131.817 551.829 -132.245 547.882 -132.288 547.546C-134.602 530.165 -136.607 513.624 -137.519 496.119C-137.588 494.78 -137.279 495.657 -137.287 495.452C-137.44 490.862 -137.918 494.517 -138.319 491.319C-137.775 491.755 -137.975 489.868 -138.067 486.614C-138.11 485.046 -137.871 485.891 -137.857 485.747C-137.655 483.41 -138.111 481.802 -138.208 481.386C-138.564 479.853 -138.272 478.155 -138.504 477.106C-138.735 476.057 -138.951 478.497 -139.045 475.35C-138.885 474.462 -138.33 476.784 -138.322 474.392C-138.334 465.455 -138.764 448.142 -138.633 441.022C-138.541 433.901 -138.422 431.578 -138.349 427.391C-138.184 419.809 -137.927 422.599 -137.549 417.885C-137.15 413.146 -138.148 415.407 -138.305 414.714C-138.461 414.033 -138.226 413.309 -138.284 412.467C-138.343 411.626 -138.573 413.426 -138.503 411.461C-138.437 409.496 -137.76 404.124 -137.51 403.435C-136.986 401.982 -136.718 404.451 -136.504 399.206C-136.491 398.904 -136.795 399.865 -136.735 398.71C-136.234 389.355 -135.423 380.327 -134.621 371.373C-134.511 370.144 -134.887 371.213 -134.826 370.497C-134.167 363.035 -134.023 365.742 -133.061 361.708C-133.809 362.55 -133.951 360.246 -133.228 354.54C-132.786 351.107 -132.581 351.733 -132.087 349.536C-131.939 348.877 -131.797 346.413 -131.603 345.988C-130.966 344.588 -130.82 346.961 -130.162 341.009C-130.133 340.748 -130.489 341.542 -130.373 340.641C-129.615 334.843 -129.036 334.053 -128.012 327.968C-127.22 323.26 -126.05 314.77 -125.088 309.313C-125.828 309.299 -124.711 304.177 -123.812 302.174C-123.154 298.622 -122.365 294.781 -121.728 291.312C-121.508 290.118 -121.874 290.858 -121.866 290.703C-121.744 288.331 -120.939 286.87 -120.758 286.1C-118.831 277.839 -117.553 270.473 -115.435 263.076C-115.357 262.806 -114.763 262.481 -114.629 260.336C-114.622 260.197 -115.456 262.69 -114.603 259.059C-113.752 255.429 -112.313 248.493 -110.765 243.461C-110.393 242.244 -109.184 239.233 -108.826 236.641C-108.779 236.295 -109.016 236.624 -108.965 236.121C-108.797 234.493 -108.075 233.773 -107.996 231.821C-107.916 229.868 -107.187 225.951 -105.426 220.828C-105.37 220.665 -104.633 219.544 -104.169 217.904C-103.432 215.286 -102.429 211.54 -101.611 208.793C-101.219 207.479 -101.228 208.392 -101.156 208.165C-98.4412 199.555 -96.8693 193.706 -94.034 184.561C-93.5181 182.893 -91.6334 178.212 -90.8105 174.887C-89.9001 171.233 -92.3175 174.511 -89.2562 166.396C-88.0122 163.116 -85.0909 159.433 -83.7292 153.169C-79.3266 141.387 -75.9402 131.127 -71.3208 120.025C-71.1133 119.526 -70.0855 118.092 -69.6257 116.905C-68.9443 115.142 -68.7519 114.099 -68.2658 112.835C-66.2311 107.534 -64.1096 102.75 -62.0256 97.6109C-61.2321 95.6591 -61.7097 96.2606 -60.7565 93.9293C-59.8007 91.598 -58.8976 90.1538 -57.6884 86.9391C-56.7744 84.5101 -56.2821 81.8956 -54.9743 78.6832C-54.4058 78.7827 -53.4826 76.5934 -51.6487 72.7533C-51.2957 72.0153 -51.4671 72.8969 -51.2908 72.5518C-50.5564 71.1194 -50.1873 69.8741 -49.5107 68.6077C-49.3483 68.304 -49.1665 68.3662 -49.0237 68.1222C-47.8054 66.0515 -46.5927 62.2675 -46.3822 61.615C-45.579 59.1197 -44.85 58.1078 -44.1265 56.2324C-43.4027 54.3594 -44.7661 57.0336 -43.8622 54.8707C-41.988 50.387 -39.3346 44.6911 -37.225 40.1569C-36.3823 38.3484 -36.7271 39.6899 -36.6012 39.4337C-34.7955 35.7243 -33.2415 31.8141 -31.7882 29.9507C-31.7303 26.7777 -30.6 27.7439 -28.2372 22.2458C-28.0507 21.8121 -28.35 21.0005 -29.2208 22.5907C-30.0912 24.1807 -31.1037 26.7334 -32.3078 28.9257C-32.5943 29.4455 -34.5738 32.2503 -34.8018 32.6513C-36.5953 35.7958 -35.9652 36.6515 -36.0009 36.8457C-36.4219 39.034 -38.7208 42.4802 -39.2118 43.4391C-41.4641 47.8245 -43.074 51.6634 -44.8845 55.3212C-46.0658 57.7133 -46.7274 57.7004 -47.5649 59.6139C-50.365 66.0354 -50.4299 68.2912 -53.8643 74.3394C-54.5908 75.6246 -54.6315 74.0244 -56.2256 79.0578C-56.3266 79.3745 -57.416 83.1404 -58.5651 85.0828C-58.71 85.3272 -58.885 85.2428 -59.0446 85.5784C-60.1081 87.8259 -60.6056 89.4103 -61.7095 91.8674C-62.8129 94.324 -64.1462 97.2651 -65.2381 100.116C-65.8974 101.834 -66.445 104.15 -66.6902 104.996C-67.3801 107.386 -68.7488 109.686 -69.0244 111.218C-69.3023 112.76 -67.7591 110.144 -69.0538 113.96C-69.5775 113.913 -70.1848 114.041 -70.7445 114.078C-73.9614 122.287 -76.8715 130.363 -79.8949 138.477C-80.2723 139.489 -80.1364 138.338 -80.5592 139.454C-82.3779 144.267 -83.7155 148.534 -85.5493 153.478C-86.9689 157.304 -88.7042 161.415 -90.1377 165.388C-90.4296 168.017 -92.6096 173.868 -93.9591 178.159C-94.4332 179.663 -94.2533 179.61 -94.5526 180.69C-95.6785 184.757 -95.5521 182.721 -95.9842 183.795C-97.8226 188.401 -96.8545 189.155 -98.6068 194.668C-98.7006 194.961 -100.392 198.35 -100.577 198.83C-101.77 201.877 -100.531 199.409 -101.082 201.374C-102.064 204.898 -102.724 207.61 -104.182 211.947C-104.609 213.213 -105.869 216.178 -106.289 218.739C-106.345 219.075 -106.098 218.951 -106.161 219.217C-107.316 224.017 -107.958 223.965 -108.917 226.613C-109.876 229.261 -110.574 233.539 -110.676 234.416C-110.95 236.714 -110.086 232.758 -110.021 232.645C-109.269 231.336 -110.155 234.354 -110.736 236.673C-110.221 237.17 -111.106 240.387 -111.338 239.076C-111.363 238.928 -110.832 237.145 -110.736 236.673C-111.869 238.545 -112.88 242.079 -113.318 246.124C-113.519 248.015 -112.789 246.372 -114.283 251.876C-114.955 254.372 -115.135 253.299 -115.791 255.482C-117.305 260.537 -118.385 266.874 -119.699 272.427C-120.165 274.395 -119.964 272.421 -120.289 273.764C-121.151 277.327 -121.663 280.51 -122.509 284.06C-122.585 284.382 -122.66 283.54 -122.898 284.65C-124.698 293.056 -125.98 300.359 -127.561 309.011C-128.331 313.194 -129.756 320.604 -130.423 324.89C-131.584 332.194 -132.697 342.13 -133.65 348.598C-134.28 352.871 -134.395 351.899 -134.801 353.708C-135.589 357.204 -135.749 363.493 -135.751 364.335C-135.753 364.362 -135.264 360.717 -135.368 362.681C-135.239 363.844 -135.745 364.294 -135.751 364.335C-135.765 364.895 -136.516 372.167 -136.704 373.595C-136.811 374.373 -136.998 373.912 -137.05 374.318C-138.25 383.887 -139.159 393.76 -139.718 403.913C-139.724 404.09 -139.445 403.84 -139.465 404.258C-139.726 410.094 -140.245 413.784 -140.662 418.539C-141.074 423.292 -141.144 427.05 -140.784 429.858C-140.957 433.42 -140.877 438.509 -140.801 441.422C-140.726 444.339 -141.236 444.725 -141.25 444.997C-141.657 453.316 -141.354 458.098 -141.171 466.602C-141.087 470.647 -140.933 478.614 -140.804 482.93C-140.708 486.344 -140.492 488.387 -140.406 491.515C-140.394 491.938 -140.643 491.523 -140.645 491.653C-140.728 495.153 -140.263 493.446 -140.125 494.16C-139.614 496.756 -139.338 498.274 -139.192 502.922C-139.16 503.984 -139.735 507.125 -139.63 509.053C-139.493 511.558 -139.283 510.592 -139.137 513.21C-139.123 513.433 -139.305 513.403 -139.159 515.011C-138.482 522.478 -137.55 530.531 -136.649 538.14C-136.525 539.179 -136.965 537.881 -136.79 539.383C-135.968 546.397 -134.885 554.134 -133.663 561.13C-133.362 562.839 -133.336 561.734 -133.22 562.097C-132.516 564.324 -132.492 567.626 -132.412 568.158C-130.524 580.883 -128.246 590.227 -125.677 602.944C-125.539 603.649 -124.857 609.158 -123.829 611.435C-123.761 611.593 -122.735 613.842 -122.549 615.998C-122.537 616.132 -123.136 614.725 -122.488 617.276C-121.839 619.826 -120.968 623.965 -119.791 627.371C-119.42 628.451 -118.272 630.924 -117.75 634.283C-117.722 634.504 -117.162 639.762 -116.071 641.379C-115.892 641.64 -115.378 641.169 -114.569 645.108C-114.415 645.86 -114.942 644.566 -114.458 646.526C-113.711 649.544 -112.323 653.551 -111.434 657.323C-111.281 657.983 -110.824 660.859 -109.804 662.948C-109.645 663.276 -109.655 662.56 -109.258 663.708C-107.366 669.166 -105.564 674.913 -103.482 680.341C-102.744 682.262 -102.776 681.157 -101.967 683.141C-101.158 685.127 -99.5912 689.135 -98.951 691.275C-98.3074 693.427 -99.6955 691.297 -98.5245 694.509C-93.412 708.466 -87.4693 721.779 -81.3679 734.969C-80.4565 736.932 -81.3892 735.382 -80.0321 738.316C-75.0685 749.195 -65.9792 767.482 -60.7019 776.17C-56.434 783.274 -61.225 774.014 -58.0595 779.496C-56.53 782.137 -55.4635 785.317 -55.1179 785.967C-51.7527 792.316 -48.996 796.465 -45.7675 802.013C-45.0993 803.158 -45.9898 802.177 -45.418 803.149C-43.4656 806.471 -41.2509 809.852 -39.3237 812.969C-38.4579 814.369 -38.7898 814.208 -37.9629 815.491C-35.9689 818.583 -34.1444 821.27 -32.0399 824.161C-31.8481 824.424 -32.8429 822.454 -31.3545 824.717C-28.9443 828.379 -25.7828 832.791 -23.1061 837.033C-22.3119 838.291 -22.6503 838.597 -20.5781 841.047C-20.1421 841.56 -20.1925 840.556 -18.4456 843.866C-18.1525 844.428 -15.0769 849.87 -12.9432 852.125C-12.3784 852.727 -10.7991 854.16 -9.79125 855.656C-9.65575 855.86 -10.4283 855.211 -9.56516 856.431C-6.51804 860.726 -3.19982 865.115 0.00935495 869.429C0.866506 870.581 -0.632655 869.036 0.652309 870.747C4.1856 875.454 8.77046 881.16 12.4245 885.546C13.7826 887.176 13.0196 885.907 13.1331 886.012C14.9932 887.726 15.5491 889.178 16.0533 889.838C19.1963 893.934 21.8895 896.789 24.906 900.432C25.7398 901.436 24.961 900.884 25.1135 901.096C26.7073 903.277 25.7245 901.478 26.8679 902.742C30.0735 906.279 33.548 910.284 36.715 913.884C37.8783 915.206 36.3576 913.91 37.4048 915.094C43.6017 922.105 50.3896 929.394 56.8298 935.894C58.0463 937.121 57.4453 936.192 57.729 936.418C59.6871 937.976 61.886 940.893 62.4385 941.519C64.9466 944.368 66.1122 945.283 68.4401 947.672C80.0634 959.619 94.683 973.203 106.5 983.576C121.733 996.953 133.875 1006.8 148.99 1018.81C149.946 1019.56 148.808 1019.02 149.63 1019.68C160.098 1027.99 171.251 1036.24 182.154 1044.17C183.053 1044.83 181.597 1044.11 183.036 1045.16C185.998 1047.34 189.704 1049.94 192.914 1052.08C194.452 1053.1 192.55 1051.5 194.095 1052.53C197.692 1054.94 201.498 1057.53 205.102 1060.02C206.636 1061.08 204.155 1059.73 206.16 1061.09C219.562 1070.16 233.716 1079.27 247.829 1087.39C248.803 1087.95 249.905 1087.98 252.001 1089.36C252.084 1089.58 251.983 1089.73 251.969 1089.91C272.835 1102.49 293.506 1113.65 315.192 1124.52C316.111 1124.98 314.393 1124.44 316.171 1125.33C326.371 1130.43 336.212 1135.23 347.072 1139.84C348.127 1140.28 347.813 1139.58 350.835 1141.02C351.375 1141.28 355.902 1143.37 357.011 1143.97C357.173 1144.06 356.21 1143.9 357.725 1144.57C367.129 1148.71 375.64 1152.18 385.041 1155.69C386.541 1156.25 385.047 1155.39 386.114 1155.79C393.787 1158.62 400.867 1161.43 408.618 1163.83C413.442 1165.3 411.807 1164.28 414.413 1164.68C414.787 1164.74 417.595 1165.64 417.806 1165.44C418.365 1164.95 417.237 1163.86 417.993 1163.39C418.167 1163.3 421.754 1164.59 419.709 1163.58C419.573 1163.52 416.935 1162.55 416.291 1162.22C415.849 1161.98 416.772 1162.02 415.849 1161.6C414.924 1161.19 413.797 1161.05 412.201 1160.38C410.593 1159.7 411.437 1159.69 408.094 1158.5ZM-140.361 454.898C-140.108 457.68 -141.003 458.096 -140.798 455.083C-140.787 454.936 -140.373 454.754 -140.361 454.898ZM-76.1811 130.538C-77.0521 133.964 -78.4297 136.001 -77.8514 133.58C-77.2697 131.157 -75.9139 129.494 -76.1811 130.538ZM-62.3178 96.2519C-63.6372 100.279 -65.0662 100.413 -63.1071 96.3219C-62.9932 96.0836 -62.2402 96.0165 -62.3178 96.2519ZM402.582 1160.5C402.628 1160.51 404.853 1161.28 404.898 1161.31C405.986 1162 401.538 1160.45 402.582 1160.5ZM-47.3631 62.2062C-47.7293 63.4468 -49.3989 66.7276 -48.9524 65.1904C-48.5943 63.9532 -46.909 60.6621 -47.3631 62.2062ZM-124.594 596.998C-124.572 597.037 -124.232 598.569 -124.312 598.554C-124.573 598.502 -124.962 596.35 -124.594 596.998ZM-20.4587 5.34694C-24.6614 13.8853 -26.2157 19.4758 -21.7711 10.1852C-20.9613 8.5004 -23.8568 13.6466 -22.8879 11.4728C-21.1126 7.49387 -19.2273 5.19295 -17.53 1.03514C-17.2249 0.282044 -20.2241 4.86004 -20.4676 5.36134C-20.4648 5.35679 -20.4616 5.35149 -20.4587 5.34694ZM-139.279 456.497C-139.267 456.553 -139.244 458.78 -139.254 458.833C-139.532 460.041 -139.581 455.553 -139.279 456.497ZM-98.362 686.02C-98.3006 686.127 -96.5169 690.86 -96.4767 691.019C-95.9925 693.658 -99.6057 684.085 -98.362 686.02ZM-125.092 309.224C-124.382 306.932 -123.821 304.13 -123.814 302.185C-124.243 304.529 -124.68 306.879 -125.092 309.224Z" fill="#EE8A54"/>
</g>
<defs>
<filter id="filter0_d_1194_18691" x="-145.452" y="0.95166" width="569.789" height="1172.52" filterUnits="userSpaceOnUse" color-interpolation-filters="sRGB">
<feFlood flood-opacity="0" result="BackgroundImageFix"/>
<feColorMatrix in="SourceAlpha" type="matrix" values="0 0 0 0 0 0 0 0 0 0 0 0 0 0 0 0 0 0 127 0" result="hardAlpha"/>
<feOffset dy="4"/>
<feGaussianBlur stdDeviation="2"/>
<feComposite in2="hardAlpha" operator="out"/>
<feColorMatrix type="matrix" values="0 0 0 0 0 0 0 0 0 0 0 0 0 0 0 0 0 0 0.25 0"/>
<feBlend mode="normal" in2="BackgroundImageFix" result="effect1_dropShadow_1194_18691"/>
<feBlend mode="normal" in="SourceGraphic" in2="effect1_dropShadow_1194_18691" result="shape"/>
</filter>
</defs>
</svg>
