<svg width="65" height="91" viewBox="0 0 65 91" fill="none" xmlns="http://www.w3.org/2000/svg">
<g filter="url(#filter0_dd_1508_1479)">
<g filter="url(#filter1_dd_1508_1479)">
<path d="M11.5001 63.8977V72.0053C25.2575 76.3809 39.8423 76.3809 53.5997 72.0053V63.8977C53.6114 53.4012 51.7583 43.0055 48.1469 33.3076C44.5355 23.6098 39.2368 14.8007 32.5553 7.38647C25.8704 14.7986 20.5688 23.6069 16.9554 33.3051C13.342 43.0032 11.488 53.4 11.5001 63.8977Z" fill="#00897B"/>
<path d="M11.4992 63.8991V72.0068C25.2566 76.3824 39.8415 76.3824 53.5988 72.0068V63.8991C53.6105 53.4026 51.7574 43.007 48.146 33.3091C44.5346 23.6112 39.236 14.8022 32.5545 7.38794C25.8695 14.8 20.568 23.6083 16.9546 33.3065C13.3412 43.0047 11.4872 53.4015 11.4992 63.8991Z" fill="white" fill-opacity="0.3"/>
<path opacity="0.4" d="M43.9376 37.3318C47.0435 47.6936 48.1661 58.7462 48.5802 70.5986C46.0191 72.3195 46.0191 72.3195 42.7605 71.7136C43.0754 60.2507 42.0941 48.7893 39.8398 37.5984L43.9376 37.3318Z" fill="white"/>
<path opacity="0.4" d="M39.3201 33.2496C38.0953 27.1788 36.4819 21.2131 34.4922 15.3982C38.1681 20.873 41.1053 26.9155 43.2107 33.3344L39.3201 33.2496Z" fill="white"/>
</g>
</g>
<defs>
<filter id="filter0_dd_1508_1479" x="0.499146" y="0.386475" width="64.1006" height="89.9021" filterUnits="userSpaceOnUse" color-interpolation-filters="sRGB">
<feFlood flood-opacity="0" result="BackgroundImageFix"/>
<feColorMatrix in="SourceAlpha" type="matrix" values="0 0 0 0 0 0 0 0 0 0 0 0 0 0 0 0 0 0 127 0" result="hardAlpha"/>
<feOffset dy="1"/>
<feGaussianBlur stdDeviation="1.5"/>
<feColorMatrix type="matrix" values="0 0 0 0 0 0 0 0 0 0 0 0 0 0 0 0 0 0 0.3 0"/>
<feBlend mode="normal" in2="BackgroundImageFix" result="effect1_dropShadow_1508_1479"/>
<feColorMatrix in="SourceAlpha" type="matrix" values="0 0 0 0 0 0 0 0 0 0 0 0 0 0 0 0 0 0 127 0" result="hardAlpha"/>
<feMorphology radius="3" operator="dilate" in="SourceAlpha" result="effect2_dropShadow_1508_1479"/>
<feOffset dy="4"/>
<feGaussianBlur stdDeviation="4"/>
<feColorMatrix type="matrix" values="0 0 0 0 0 0 0 0 0 0 0 0 0 0 0 0 0 0 0.15 0"/>
<feBlend mode="normal" in2="effect1_dropShadow_1508_1479" result="effect2_dropShadow_1508_1479"/>
<feBlend mode="normal" in="SourceGraphic" in2="effect2_dropShadow_1508_1479" result="shape"/>
</filter>
<filter id="filter1_dd_1508_1479" x="0.499146" y="0.386475" width="64.1006" height="89.9021" filterUnits="userSpaceOnUse" color-interpolation-filters="sRGB">
<feFlood flood-opacity="0" result="BackgroundImageFix"/>
<feColorMatrix in="SourceAlpha" type="matrix" values="0 0 0 0 0 0 0 0 0 0 0 0 0 0 0 0 0 0 127 0" result="hardAlpha"/>
<feOffset dy="1"/>
<feGaussianBlur stdDeviation="1.5"/>
<feColorMatrix type="matrix" values="0 0 0 0 0 0 0 0 0 0 0 0 0 0 0 0 0 0 0.3 0"/>
<feBlend mode="normal" in2="BackgroundImageFix" result="effect1_dropShadow_1508_1479"/>
<feColorMatrix in="SourceAlpha" type="matrix" values="0 0 0 0 0 0 0 0 0 0 0 0 0 0 0 0 0 0 127 0" result="hardAlpha"/>
<feMorphology radius="3" operator="dilate" in="SourceAlpha" result="effect2_dropShadow_1508_1479"/>
<feOffset dy="4"/>
<feGaussianBlur stdDeviation="4"/>
<feColorMatrix type="matrix" values="0 0 0 0 0 0 0 0 0 0 0 0 0 0 0 0 0 0 0.15 0"/>
<feBlend mode="normal" in2="effect1_dropShadow_1508_1479" result="effect2_dropShadow_1508_1479"/>
<feBlend mode="normal" in="SourceGraphic" in2="effect2_dropShadow_1508_1479" result="shape"/>
</filter>
</defs>
</svg>
