<svg width="129" height="138" viewBox="0 0 129 138" fill="none" xmlns="http://www.w3.org/2000/svg">
<path d="M54.202 81.8244L50.7363 114.134C50.7363 114.134 57.2752 109.492 59.1061 119.781C59.1061 119.781 59.1715 112.51 64.4244 111.916C70.0479 111.31 70.9633 118.472 70.9633 118.472C70.9633 118.472 71.1704 109.492 78.3087 108.438L75.1156 81.7759L54.202 81.8244Z" fill="#00897B"/>
<path d="M17.7234 137.053C17.7234 137.053 -0.574604 138.325 0.0138972 135.404C0.602399 132.484 14.1052 132.084 14.1052 132.084C14.1052 132.084 5.61555 128.024 9.32093 122.255C13.0263 116.487 19.9576 123.709 19.9576 123.709C19.9576 123.709 15.5983 116.862 20.0556 112.887C25.7009 107.846 30.4961 117.82 30.4961 117.82C30.4961 117.82 29.221 110.136 34.3104 110.282C39.3999 110.427 37.9504 117.747 37.9504 117.747C37.9504 117.747 45.056 111.215 48.7614 115.505C52.2052 119.492 47.4754 125.115 47.4754 125.115C47.4754 125.115 54.8753 119.953 57.0876 124.727C59.3 129.502 51.3552 133.671 51.3552 133.671C51.3552 133.671 66.7216 132.823 67.2229 135.477C67.7242 138.131 29.5697 135.562 17.7234 137.053Z" fill="#00897B"/>
<path opacity="0.7" d="M17.7234 137.053C17.7234 137.053 -0.574604 138.325 0.0138972 135.404C0.602399 132.484 14.1052 132.084 14.1052 132.084C14.1052 132.084 5.61555 128.024 9.32093 122.255C13.0263 116.487 19.9576 123.709 19.9576 123.709C19.9576 123.709 15.5983 116.862 20.0556 112.887C25.7009 107.846 30.4961 117.82 30.4961 117.82C30.4961 117.82 29.221 110.136 34.3104 110.282C39.3999 110.427 37.9504 117.747 37.9504 117.747C37.9504 117.747 45.056 111.215 48.7614 115.505C52.2052 119.492 47.4754 125.115 47.4754 125.115C47.4754 125.115 54.8753 119.953 57.0876 124.727C59.3 129.502 51.3552 133.671 51.3552 133.671C51.3552 133.671 66.7216 132.823 67.2229 135.477C67.7242 138.131 29.5697 135.562 17.7234 137.053Z" fill="white"/>
<path d="M79.3408 135.814C79.3408 135.814 61.0318 137.099 61.6203 134.166C62.2088 131.233 75.7117 130.846 75.7117 130.846C75.7117 130.846 67.222 126.786 70.9274 121.029C74.6327 115.273 81.564 122.471 81.564 122.471C81.564 122.471 77.2047 115.636 81.6621 111.661C87.3073 106.62 92.1025 116.581 92.1025 116.581C92.1025 116.581 90.8383 108.91 95.9169 109.056C100.995 109.201 99.5569 116.509 99.5569 116.509C99.5569 116.509 106.662 109.977 110.368 114.279C113.812 118.266 109.082 123.877 109.082 123.877C109.082 123.877 116.482 118.714 118.705 123.501C120.928 128.288 112.962 132.445 112.962 132.445C112.962 132.445 128.339 131.597 128.829 134.251C129.32 136.905 91.1762 134.324 79.3408 135.814Z" fill="#00897B"/>
<path opacity="0.7" d="M79.3408 135.814C79.3408 135.814 61.0318 137.099 61.6203 134.166C62.2088 131.233 75.7117 130.846 75.7117 130.846C75.7117 130.846 67.222 126.786 70.9274 121.029C74.6327 115.273 81.564 122.471 81.564 122.471C81.564 122.471 77.2047 115.636 81.6621 111.661C87.3073 106.62 92.1025 116.581 92.1025 116.581C92.1025 116.581 90.8383 108.91 95.9169 109.056C100.995 109.201 99.5569 116.509 99.5569 116.509C99.5569 116.509 106.662 109.977 110.368 114.279C113.812 118.266 109.082 123.877 109.082 123.877C109.082 123.877 116.482 118.714 118.705 123.501C120.928 128.288 112.962 132.445 112.962 132.445C112.962 132.445 128.339 131.597 128.829 134.251C129.32 136.905 91.1762 134.324 79.3408 135.814Z" fill="white"/>
<path d="M43.9448 109.701C43.9448 109.701 34.3763 105.132 38.5503 98.6362C42.7243 92.1404 50.5382 100.272 50.5382 100.272C50.5382 100.272 45.6123 92.5646 50.6363 88.0684C57.0118 82.3967 62.4063 93.6311 62.4063 93.6311C62.4063 93.6311 60.9787 84.9781 66.7656 85.1477C72.5525 85.3174 70.8633 93.5584 70.8633 93.5584C70.8633 93.5584 78.8735 86.19 83.0475 91.0376C86.9272 95.5338 81.598 101.86 81.598 101.86C81.598 101.86 89.9351 96.0428 92.4962 101.436C95.0573 106.829 86.0227 111.519 86.0227 111.519L43.9448 109.701Z" fill="#00897B"/>
<path opacity="0.6" d="M43.9448 109.701C43.9448 109.701 34.3763 105.132 38.5503 98.6362C42.7243 92.1404 50.5382 100.272 50.5382 100.272C50.5382 100.272 45.6123 92.5646 50.6363 88.0684C57.0118 82.3967 62.4063 93.6311 62.4063 93.6311C62.4063 93.6311 60.9787 84.9781 66.7656 85.1477C72.5525 85.3174 70.8633 93.5584 70.8633 93.5584C70.8633 93.5584 78.8735 86.19 83.0475 91.0376C86.9272 95.5338 81.598 101.86 81.598 101.86C81.598 101.86 89.9351 96.0428 92.4962 101.436C95.0573 106.829 86.0227 111.519 86.0227 111.519L43.9448 109.701Z" fill="white"/>
<path d="M39.259 137.244C39.259 137.244 12.3297 139.134 13.1906 134.82C14.0516 130.505 33.8972 129.972 33.8972 129.972C33.8972 129.972 21.4187 124.01 26.8678 115.526C32.4368 106.849 42.5176 117.659 42.5176 117.659C42.5176 117.659 36.0986 107.6 42.6593 101.747C50.9637 94.3299 58.0148 109.018 58.0148 109.018C58.0148 109.018 56.1512 97.7233 63.6383 97.9293C71.1253 98.1353 68.9784 108.909 68.9784 108.909C68.9784 108.909 79.4406 99.2987 84.8897 105.613C89.9574 111.491 82.9934 119.744 82.9934 119.744C82.9934 119.744 93.8916 112.157 97.161 119.186C100.43 126.215 88.715 132.347 88.715 132.347C88.715 132.347 111.329 131.136 112.07 135.002C112.811 138.867 56.6852 135.062 39.259 137.244Z" fill="#00897B"/>
<path opacity="0.8" d="M39.259 137.244C39.259 137.244 12.3297 139.134 13.1906 134.82C14.0516 130.505 33.8972 129.972 33.8972 129.972C33.8972 129.972 21.4187 124.01 26.8678 115.526C32.4368 106.849 42.5176 117.659 42.5176 117.659C42.5176 117.659 36.0986 107.6 42.6593 101.747C50.9637 94.3299 58.0148 109.018 58.0148 109.018C58.0148 109.018 56.1512 97.7233 63.6383 97.9293C71.1253 98.1353 68.9784 108.909 68.9784 108.909C68.9784 108.909 79.4406 99.2987 84.8897 105.613C89.9574 111.491 82.9934 119.744 82.9934 119.744C82.9934 119.744 93.8916 112.157 97.161 119.186C100.43 126.215 88.715 132.347 88.715 132.347C88.715 132.347 111.329 131.136 112.07 135.002C112.811 138.867 56.6852 135.062 39.259 137.244Z" fill="white"/>
<path opacity="0.9" d="M54.202 84.0422L50.7363 116.291C50.7363 116.291 57.2752 111.783 59.1061 122.108C59.1061 122.108 59.1715 114.837 64.4244 114.34C70.0479 113.843 70.9633 121.03 70.9633 121.03C70.9633 121.03 71.1704 112.049 78.3087 111.128L75.1156 84.4664L54.202 84.0422Z" fill="white"/>
<path opacity="0.1" d="M58.9518 97.4946C58.0442 101.91 57.8522 106.469 58.3851 110.959C58.3851 110.959 59.9653 103.191 58.9518 97.4946Z" fill="white"/>
<path opacity="0.1" d="M70.2862 102.003C69.726 106.027 69.8072 110.129 70.526 114.122C70.526 114.122 71.5177 107.044 70.2862 102.003Z" fill="white"/>
<path d="M43.3653 12.335H41.3382L6.52943 81.1106C6.33737 81.4927 6.23856 81.924 6.24281 82.3618C6.24706 82.7995 6.35422 83.2283 6.55366 83.6057C6.75309 83.9831 7.03784 84.2959 7.37964 84.513C7.72143 84.7301 8.10837 84.844 8.502 84.8433H43.3761L43.3653 12.335Z" fill="#00897B"/>
<path d="M122.303 81.1106L87.5374 12.335H85.4668V84.8433H120.341C120.735 84.8455 121.122 84.7324 121.465 84.5153C121.807 84.2981 122.092 83.9847 122.29 83.6065C122.489 83.2283 122.595 82.7985 122.597 82.3604C122.599 81.9223 122.498 81.4913 122.303 81.1106Z" fill="#00897B"/>
<g opacity="0.2">
<path d="M43.3657 12.3354H41.3387L6.52992 81.1111C6.33786 81.4932 6.23905 81.9245 6.2433 82.3622C6.24754 82.7999 6.35471 83.2288 6.55415 83.6062C6.75358 83.9836 7.03833 84.2964 7.38012 84.5135C7.72192 84.7306 8.10886 84.8445 8.50248 84.8438H43.3766L43.3657 12.3354Z" fill="white"/>
<path d="M122.303 81.1111L87.5377 12.3354H85.467V84.8438H120.341C120.735 84.846 121.123 84.7328 121.465 84.5157C121.807 84.2986 122.092 83.9852 122.291 83.607C122.489 83.2287 122.595 82.799 122.597 82.3609C122.6 81.9228 122.498 81.4918 122.303 81.1111Z" fill="white"/>
</g>
<path d="M85.4678 54V3.28169C71.7104 -1.0939 57.1256 -1.0939 43.3682 3.28169V54C57.1256 49.6244 71.7104 49.6244 85.4678 54Z" fill="#004B44"/>
<path d="M79.9103 85.7995L74.3849 60.5676H54.4521L48.9268 85.7995C53.8361 88.0713 59.1011 89.2409 64.4185 89.2409C69.736 89.2409 75.0009 88.0713 79.9103 85.7995Z" fill="#004B44"/>
<path opacity="0.2" d="M54.4512 60.5676L53.1543 66.4696C60.5107 68.8494 68.3244 68.8494 75.6808 66.4696L74.3839 60.5676H54.4512Z" fill="white"/>
<path opacity="0.4" d="M51.7695 72.8081C51.4208 74.4078 51.0611 76.0197 50.6797 77.5588C59.5951 80.6376 69.1405 80.6376 78.0559 77.5588L76.9661 72.8202C68.6464 74.638 60.0878 74.6338 51.7695 72.8081Z" fill="white"/>
<path d="M85.4678 3.04077C71.7112 7.42284 57.1247 7.42284 43.3682 3.04077V47.0451C57.0038 52.2986 71.8322 52.2986 85.4678 47.0451V3.0529V3.04077Z" fill="#00897B"/>
<path opacity="0.7" d="M85.4678 3.04077C71.7112 7.42284 57.1247 7.42284 43.3682 3.04077V47.0451C57.0038 52.2986 71.8322 52.2986 85.4678 47.0451V3.0529V3.04077Z" fill="white"/>
<path d="M43.3682 47.0289V57.7421C50.04 60.824 57.1934 62.4105 64.418 62.4105C71.6425 62.4105 78.796 60.824 85.4678 57.7421V47.0046C71.8346 52.266 57.0062 52.2745 43.3682 47.0289Z" fill="#00897B"/>
<path opacity="0.2" d="M43.3682 47.0289V57.7421C50.04 60.824 57.1934 62.4105 64.418 62.4105C71.6425 62.4105 78.796 60.824 85.4678 57.7421V47.0046C71.8346 52.266 57.0062 52.2745 43.3682 47.0289Z" fill="white"/>
<path d="M33.9951 28.1979V31.8336C40.1232 33.7909 46.6229 33.7909 52.7509 31.8336V28.1979C52.7555 23.5217 51.9288 18.8905 50.3185 14.5708C48.7082 10.251 46.3459 6.32776 43.3676 3.02661C40.3926 6.32996 38.0333 10.2538 36.425 14.5733C34.8167 18.8928 33.9909 23.5228 33.9951 28.1979Z" fill="#00897B"/>
<path opacity="0.2" d="M33.9951 28.1979V31.8336C40.1232 33.7909 46.6229 33.7909 52.7509 31.8336V28.1979C52.7555 23.5217 51.9288 18.8905 50.3185 14.5708C48.7082 10.251 46.3459 6.32776 43.3676 3.02661C40.3926 6.32996 38.0333 10.2538 36.425 14.5733C34.8167 18.8928 33.9909 23.5228 33.9951 28.1979Z" fill="white"/>
<path d="M33.9951 31.8105V59.1511C40.1239 61.1026 46.6221 61.1026 52.7509 59.1511V31.8105C46.6228 33.7679 40.1231 33.7679 33.9951 31.8105Z" fill="#00897B"/>
<path opacity="0.4" d="M33.9951 31.8105V59.1511C40.1239 61.1026 46.6221 61.1026 52.7509 59.1511V31.8105C46.6228 33.7679 40.1231 33.7679 33.9951 31.8105Z" fill="white"/>
<path d="M52.7509 59.1614C46.6221 61.1128 40.1239 61.1128 33.9951 59.1614V87.3139C40.1246 89.2596 46.6214 89.2596 52.7509 87.3139V59.1614Z" fill="#00897B"/>
<path opacity="0.6" d="M52.7509 59.1614C46.6221 61.1128 40.1239 61.1128 33.9951 59.1614V87.3139C40.1246 89.2596 46.6214 89.2596 52.7509 87.3139V59.1614Z" fill="white"/>
<path d="M33.9951 86.8315V91.6186C36.9677 92.9904 40.1546 93.6965 43.373 93.6965C46.5914 93.6965 49.7783 92.9904 52.7509 91.6186V86.8315C46.6759 89.1706 40.0701 89.1706 33.9951 86.8315Z" fill="#00897B"/>
<path opacity="0.4" d="M43.3682 6.62622C43.3682 6.62622 46.7248 15.9094 46.7248 23.9686V85.0123L49.5801 84.37V20.3692C49.5801 20.3692 49.1442 11.898 43.3682 6.62622Z" fill="white"/>
<path d="M76.0938 28.1979V31.8336C82.2181 33.7912 88.7144 33.7912 94.8386 31.8336V28.1979C94.8429 23.5228 94.0171 18.8928 92.4088 14.5733C90.8005 10.2538 88.4412 6.32996 85.4662 3.02661C82.4893 6.32836 80.1288 10.252 78.5203 14.5718C76.9118 18.8916 76.0872 23.5224 76.0938 28.1979Z" fill="#00897B"/>
<path opacity="0.2" d="M76.0938 28.1979V31.8336C82.2181 33.7912 88.7144 33.7912 94.8386 31.8336V28.1979C94.8429 23.5228 94.0171 18.8928 92.4088 14.5733C90.8005 10.2538 88.4412 6.32996 85.4662 3.02661C82.4893 6.32836 80.1288 10.252 78.5203 14.5718C76.9118 18.8916 76.0872 23.5224 76.0938 28.1979Z" fill="white"/>
<path d="M76.0938 31.8105V59.1511C82.2188 61.1029 88.7136 61.1029 94.8386 59.1511V31.8105C88.7143 33.7682 82.218 33.7682 76.0938 31.8105Z" fill="#00897B"/>
<path opacity="0.4" d="M76.0938 31.8105V59.1511C82.2188 61.1029 88.7136 61.1029 94.8386 59.1511V31.8105C88.7143 33.7682 82.218 33.7682 76.0938 31.8105Z" fill="white"/>
<path d="M94.8386 59.1614C88.7136 61.1131 82.2188 61.1131 76.0938 59.1614V87.3139C82.2196 89.2592 88.7128 89.2592 94.8386 87.3139V59.1614Z" fill="#00897B"/>
<path opacity="0.6" d="M94.8386 59.1614C88.7136 61.1131 82.2188 61.1131 76.0938 59.1614V87.3139C82.2196 89.2592 88.7128 89.2592 94.8386 87.3139V59.1614Z" fill="white"/>
<path d="M76.0938 86.8315V91.6186C79.0646 92.9901 82.2496 93.696 85.4662 93.696C88.6828 93.696 91.8678 92.9901 94.8386 91.6186V86.8315C88.7673 89.1706 82.165 89.1706 76.0938 86.8315Z" fill="#00897B"/>
<path opacity="0.4" d="M85.6309 7.35425C85.6309 7.35425 88.9875 16.6374 88.9875 24.6966V85.7403L91.8319 85.098V21.0973C91.8319 21.0973 91.4069 12.626 85.6309 7.35425Z" fill="white"/>
</svg>
