<svg width="139" height="101" viewBox="0 0 139 101" fill="none" xmlns="http://www.w3.org/2000/svg">
<g filter="url(#filter0_dd_1600_2459)">
<path d="M48.1226 20.1064H46.0955L11.2868 88.8821C11.0947 89.2642 10.9959 89.6955 11.0001 90.1332C11.0044 90.5709 11.1115 90.9998 11.311 91.3772C11.5104 91.7546 11.7952 92.0674 12.137 92.2845C12.4788 92.5016 12.8657 92.6154 13.2593 92.6148H48.1335L48.1226 20.1064Z" fill="#00897B"/>
<path d="M127.059 88.8821L92.2943 20.1064H90.2236V92.6148H125.098C125.492 92.617 125.879 92.5038 126.221 92.2867C126.564 92.0696 126.848 91.7562 127.047 91.378C127.246 90.9997 127.352 90.57 127.354 90.1319C127.356 89.6938 127.255 89.2628 127.059 88.8821Z" fill="#00897B"/>
<g opacity="0.2">
<path d="M48.123 20.1069H46.096L11.2872 88.8826C11.0952 89.2647 10.9963 89.696 11.0006 90.1337C11.0048 90.5714 11.112 91.0003 11.3114 91.3777C11.5109 91.7551 11.7956 92.0678 12.1374 92.285C12.4792 92.5021 12.8661 92.6159 13.2598 92.6153H48.1339L48.123 20.1069Z" fill="white"/>
<path d="M127.06 88.8826L92.2951 20.1069H90.2245V92.6153H125.099C125.493 92.6175 125.88 92.5043 126.222 92.2872C126.565 92.0701 126.849 91.7567 127.048 91.3785C127.247 91.0002 127.353 90.5705 127.355 90.1324C127.357 89.6943 127.255 89.2632 127.06 88.8826Z" fill="white"/>
</g>
<path d="M90.2246 61.7715V11.0532C76.4672 6.67759 61.8824 6.67759 48.125 11.0532V61.7715C61.8824 57.3959 76.4672 57.3959 90.2246 61.7715Z" fill="#004B44"/>
<path d="M84.6676 93.571L79.1422 68.3391H59.2094L53.6841 93.571C58.5934 95.8428 63.8584 97.0123 69.1758 97.0123C74.4933 97.0123 79.7582 95.8428 84.6676 93.571Z" fill="#004B44"/>
<path opacity="0.2" d="M59.209 68.3391L57.9121 74.2411C65.2685 76.6209 73.0823 76.6209 80.4386 74.2411L79.1417 68.3391H59.209Z" fill="white"/>
<path opacity="0.4" d="M56.5263 80.5796C56.1776 82.1793 55.818 83.7912 55.4365 85.3303C64.3519 88.4091 73.8973 88.4091 82.8127 85.3303L81.7229 80.5917C73.4032 82.4095 64.8446 82.4053 56.5263 80.5796Z" fill="white"/>
<path d="M90.2246 10.8123C76.4681 15.1943 61.8816 15.1943 48.125 10.8123V54.8166C61.7606 60.0701 76.589 60.0701 90.2246 54.8166V10.8244V10.8123Z" fill="#00897B"/>
<path opacity="0.7" d="M90.2246 10.8123C76.4681 15.1943 61.8816 15.1943 48.125 10.8123V54.8166C61.7606 60.0701 76.589 60.0701 90.2246 54.8166V10.8244V10.8123Z" fill="white"/>
<path d="M48.125 54.8003V65.5136C54.7968 68.5955 61.9503 70.182 69.1748 70.182C76.3994 70.182 83.5528 68.5955 90.2246 65.5136V54.7761C76.5915 60.0375 61.7631 60.046 48.125 54.8003Z" fill="#00897B"/>
<path opacity="0.2" d="M48.125 54.8003V65.5136C54.7968 68.5955 61.9503 70.182 69.1748 70.182C76.3994 70.182 83.5528 68.5955 90.2246 65.5136V54.7761C76.5915 60.0375 61.7631 60.046 48.125 54.8003Z" fill="white"/>
<path d="M38.7525 35.9694V39.6051C44.8805 41.5624 51.3802 41.5624 57.5082 39.6051V35.9694C57.5128 31.2931 56.6862 26.662 55.0758 22.3422C53.4655 18.0225 51.1033 14.0992 48.1249 10.7981C45.1499 14.1014 42.7906 18.0253 41.1823 22.3448C39.574 26.6642 38.7482 31.2943 38.7525 35.9694Z" fill="#00897B"/>
<path opacity="0.2" d="M38.7525 35.9694V39.6051C44.8805 41.5624 51.3802 41.5624 57.5082 39.6051V35.9694C57.5128 31.2931 56.6862 26.662 55.0758 22.3422C53.4655 18.0225 51.1033 14.0992 48.1249 10.7981C45.1499 14.1014 42.7906 18.0253 41.1823 22.3448C39.574 26.6642 38.7482 31.2943 38.7525 35.9694Z" fill="white"/>
<path d="M38.7524 39.582V66.9226C44.8812 68.8741 51.3794 68.8741 57.5082 66.9226V39.582C51.3802 41.5394 44.8805 41.5394 38.7524 39.582Z" fill="#00897B"/>
<path opacity="0.4" d="M38.7524 39.582V66.9226C44.8812 68.8741 51.3794 68.8741 57.5082 66.9226V39.582C51.3802 41.5394 44.8805 41.5394 38.7524 39.582Z" fill="white"/>
<path d="M57.5082 66.9329C51.3794 68.8843 44.8812 68.8843 38.7524 66.9329V95.0854C44.8819 97.0311 51.3787 97.0311 57.5082 95.0854V66.9329Z" fill="#00897B"/>
<path opacity="0.6" d="M57.5082 66.9329C51.3794 68.8843 44.8812 68.8843 38.7524 66.9329V95.0854C44.8819 97.0311 51.3787 97.0311 57.5082 95.0854V66.9329Z" fill="white"/>
<path d="M38.7524 94.603V99.3901C41.7251 100.762 44.9119 101.468 48.1303 101.468C51.3488 101.468 54.5356 100.762 57.5082 99.3901V94.603C51.4332 96.9421 44.8274 96.9421 38.7524 94.603Z" fill="#00897B"/>
<path opacity="0.4" d="M48.125 14.3977C48.125 14.3977 51.4816 23.6809 51.4816 31.7401V92.7838L54.337 92.1415V28.1407C54.337 28.1407 53.901 19.6695 48.125 14.3977Z" fill="white"/>
<path d="M80.8516 35.9694V39.6051C86.9759 41.5627 93.4722 41.5627 99.5965 39.6051V35.9694C99.6007 31.2943 98.775 26.6642 97.1666 22.3448C95.5583 18.0253 93.199 14.1014 90.224 10.7981C87.2471 14.0998 84.8866 18.0234 83.2781 22.3433C81.6696 26.6631 80.845 31.2939 80.8516 35.9694Z" fill="#00897B"/>
<path opacity="0.2" d="M80.8516 35.9694V39.6051C86.9759 41.5627 93.4722 41.5627 99.5965 39.6051V35.9694C99.6007 31.2943 98.775 26.6642 97.1666 22.3448C95.5583 18.0253 93.199 14.1014 90.224 10.7981C87.2471 14.0998 84.8866 18.0234 83.2781 22.3433C81.6696 26.6631 80.845 31.2939 80.8516 35.9694Z" fill="white"/>
<path d="M80.8516 39.582V66.9226C86.9766 68.8744 93.4714 68.8744 99.5964 66.9226V39.582C93.4721 41.5397 86.9759 41.5397 80.8516 39.582Z" fill="#00897B"/>
<path opacity="0.4" d="M80.8516 39.582V66.9226C86.9766 68.8744 93.4714 68.8744 99.5964 66.9226V39.582C93.4721 41.5397 86.9759 41.5397 80.8516 39.582Z" fill="white"/>
<path d="M99.5964 66.9329C93.4714 68.8846 86.9766 68.8846 80.8516 66.9329V95.0854C86.9774 97.0307 93.4706 97.0307 99.5964 95.0854V66.9329Z" fill="#00897B"/>
<path opacity="0.6" d="M99.5964 66.9329C93.4714 68.8846 86.9766 68.8846 80.8516 66.9329V95.0854C86.9774 97.0307 93.4706 97.0307 99.5964 95.0854V66.9329Z" fill="white"/>
<path d="M80.8516 94.603V99.3901C83.8224 100.762 87.0074 101.467 90.224 101.467C93.4406 101.467 96.6256 100.762 99.5964 99.3901V94.603C93.5252 96.9421 86.9228 96.9421 80.8516 94.603Z" fill="#00897B"/>
<path opacity="0.4" d="M90.3882 15.1257C90.3882 15.1257 93.7448 24.4089 93.7448 32.4681V93.5118L96.5892 92.8695V28.8687C96.5892 28.8687 96.1642 20.3975 90.3882 15.1257Z" fill="white"/>
</g>
<defs>
<filter id="filter0_dd_1600_2459" x="0" y="0.771484" width="138.355" height="115.697" filterUnits="userSpaceOnUse" color-interpolation-filters="sRGB">
<feFlood flood-opacity="0" result="BackgroundImageFix"/>
<feColorMatrix in="SourceAlpha" type="matrix" values="0 0 0 0 0 0 0 0 0 0 0 0 0 0 0 0 0 0 127 0" result="hardAlpha"/>
<feOffset dy="1"/>
<feGaussianBlur stdDeviation="1.5"/>
<feColorMatrix type="matrix" values="0 0 0 0 0 0 0 0 0 0 0 0 0 0 0 0 0 0 0.3 0"/>
<feBlend mode="normal" in2="BackgroundImageFix" result="effect1_dropShadow_1600_2459"/>
<feColorMatrix in="SourceAlpha" type="matrix" values="0 0 0 0 0 0 0 0 0 0 0 0 0 0 0 0 0 0 127 0" result="hardAlpha"/>
<feMorphology radius="3" operator="dilate" in="SourceAlpha" result="effect2_dropShadow_1600_2459"/>
<feOffset dy="4"/>
<feGaussianBlur stdDeviation="4"/>
<feColorMatrix type="matrix" values="0 0 0 0 0 0 0 0 0 0 0 0 0 0 0 0 0 0 0.15 0"/>
<feBlend mode="normal" in2="effect1_dropShadow_1600_2459" result="effect2_dropShadow_1600_2459"/>
<feBlend mode="normal" in="SourceGraphic" in2="effect2_dropShadow_1600_2459" result="shape"/>
</filter>
</defs>
</svg>
